<svg width="20" height="22" viewBox="0 0 20 22" xmlns="http://www.w3.org/2000/svg">
  <path d="M2.66667 22C1.19391 22 0 20.8061 0 19.3333V8.33333C0 7.49398 0.395184 6.70361 1.06667 6.2L8.4 0.7C9.34815 -0.011111 10.6519 -0.0111112 11.6 0.7L18.9333 6.2C19.6048 6.70361 20 7.49398 20 8.33333V19.3333C20 20.8061 18.8061 22 17.3333 22H2.66667ZM2.5 16.8333C2.5 18.3061 3.69391 19.5 5.16667 19.5H14.8333C16.3061 19.5 17.5 18.3061 17.5 16.8333V9.58333C17.5 8.74398 17.1048 7.95361 16.4333 7.45L11.6 3.825C10.6519 3.11389 9.34815 3.11389 8.4 3.825L3.56667 7.45C2.89518 7.95361 2.5 8.74398 2.5 9.58333V16.8333Z" fill="currentColor"/>
</svg>
