<svg width="20" height="20" viewBox="0 0 20 20" fill="currentColor" xmlns="http://www.w3.org/2000/svg">
<path d="M7.26368 19.9503L6.86567 16.7662C6.65008 16.6833 6.44693 16.5838 6.25622 16.4677C6.06551 16.3516 5.87894 16.2272 5.69652 16.0946L2.73632 17.3384L0 12.612L2.56219 10.6717C2.54561 10.5556 2.53731 10.4437 2.53731 10.3359V9.66423C2.53731 9.55644 2.54561 9.4445 2.56219 9.32841L0 7.38811L2.73632 2.66174L5.69652 3.90553C5.87894 3.77286 6.06965 3.64848 6.26866 3.53239C6.46766 3.41631 6.66667 3.3168 6.86567 3.23388L7.26368 0.0498047H12.7363L13.1343 3.23388C13.3499 3.3168 13.5531 3.41631 13.7438 3.53239C13.9345 3.64848 14.1211 3.77286 14.3035 3.90553L17.2637 2.66174L20 7.38811L17.4378 9.32841C17.4544 9.4445 17.4627 9.55644 17.4627 9.66423V10.3359C17.4627 10.4437 17.4461 10.5556 17.4129 10.6717L19.9751 12.612L17.2388 17.3384L14.3035 16.0946C14.1211 16.2272 13.9303 16.3516 13.7313 16.4677C13.5323 16.5838 13.3333 16.6833 13.1343 16.7662L12.7363 19.9503H7.26368ZM9.00498 17.9603H10.9701L11.3184 15.3234C11.8325 15.1908 12.3093 14.9959 12.7488 14.7389C13.1882 14.4818 13.5904 14.1709 13.9552 13.806L16.4179 14.8259L17.3881 13.1344L15.2488 11.5175C15.3317 11.2853 15.3897 11.0407 15.4229 10.7836C15.4561 10.5266 15.4726 10.2654 15.4726 10.0001C15.4726 9.73471 15.4561 9.47352 15.4229 9.21647C15.3897 8.95942 15.3317 8.71481 15.2488 8.48264L17.3881 6.86572L16.4179 5.17418L13.9552 6.21896C13.5904 5.83753 13.1882 5.5183 12.7488 5.26125C12.3093 5.0042 11.8325 4.80934 11.3184 4.67667L10.995 2.03985H9.02985L8.68159 4.67667C8.1675 4.80934 7.69071 5.0042 7.25124 5.26125C6.81177 5.5183 6.40962 5.82924 6.04478 6.19408L3.58209 5.17418L2.61194 6.86572L4.75124 8.45776C4.66832 8.70652 4.61028 8.95528 4.57711 9.20403C4.54395 9.45279 4.52736 9.71813 4.52736 10.0001C4.52736 10.2654 4.54395 10.5224 4.57711 10.7712C4.61028 11.02 4.66832 11.2687 4.75124 11.5175L2.61194 13.1344L3.58209 14.8259L6.04478 13.7811C6.40962 14.1626 6.81177 14.4818 7.25124 14.7389C7.69071 14.9959 8.1675 15.1908 8.68159 15.3234L9.00498 17.9603ZM10.0498 13.4826C11.0116 13.4826 11.8325 13.1427 12.5124 12.4627C13.1924 11.7828 13.5323 10.9619 13.5323 10.0001C13.5323 9.03819 13.1924 8.2173 12.5124 7.53737C11.8325 6.85743 11.0116 6.51747 10.0498 6.51747C9.07131 6.51747 8.24627 6.85743 7.57463 7.53737C6.90299 8.2173 6.56716 9.03819 6.56716 10.0001C6.56716 10.9619 6.90299 11.7828 7.57463 12.4627C8.24627 13.1427 9.07131 13.4826 10.0498 13.4826Z" fill="#B3B9C4"/>
</svg>
