<svg width="22" height="22" viewBox="0 0 22 22" fill="none" xmlns="http://www.w3.org/2000/svg">
<g clip-path="url(#clip0_1788_5260)">
<path d="M0.515625 3.39063C0.515625 1.52666 2.02666 0.015625 3.89062 0.015625H18.2344C20.0983 0.015625 21.6094 1.52666 21.6094 3.39062V17.7344C21.6094 19.5983 20.0983 21.1094 18.2344 21.1094H3.89063C2.02666 21.1094 0.515625 19.5983 0.515625 17.7344V3.39063Z" fill="#006EFF"/>
<mask id="mask0_1788_5260" style="mask-type:alpha" maskUnits="userSpaceOnUse" x="1" y="0" width="21" height="22">
<rect x="1.35938" y="0.859375" width="20.25" height="20.25" fill="#D9D9D9"/>
</mask>
<g mask="url(#mask0_1788_5260)">
<path d="M9.4168 16.047L4.60742 11.2376L5.80977 10.0353L9.4168 13.6423L17.1582 5.90088L18.3605 7.10322L9.4168 16.047Z" fill="white"/>
</g>
</g>
<defs>
<clipPath id="clip0_1788_5260">
<path d="M0.515625 3.39063C0.515625 1.52666 2.02666 0.015625 3.89062 0.015625H18.2344C20.0983 0.015625 21.6094 1.52666 21.6094 3.39062V17.7344C21.6094 19.5983 20.0983 21.1094 18.2344 21.1094H3.89063C2.02666 21.1094 0.515625 19.5983 0.515625 17.7344V3.39063Z" fill="white"/>
</clipPath>
</defs>
</svg>
