<svg width="330" height="330" viewBox="0 0 330 330" fill="none" xmlns="http://www.w3.org/2000/svg">
<path d="M71.9217 87.6631C82.7514 64.1501 117.334 83.2354 117.367 83.2533C117.368 83.2539 117.367 83.2536 117.368 83.2541C163.113 107.686 174.759 74.625 164.215 60.1696" stroke="#161A1D" stroke-width="5.775" stroke-linecap="round"/>
<path d="M65.638 100.953C65.6379 117.719 67.5101 132.655 69.9436 145.515M157.576 167.475C127.526 220.275 89.909 214.588 73.8433 161.593C72.3427 156.643 71.0346 151.28 69.9436 145.515M69.9436 145.515C10.0427 177.586 -5.76099 216.797 15.2153 277.938" stroke="#161A1D" stroke-width="5.775" stroke-linecap="round"/>
<path d="M113.117 115.029C106.347 116.106 101.793 120.512 100.472 127.296C99.9076 130.298 100.187 133.592 101.252 135.993C101.648 136.894 103.059 138.782 104.483 140.342C106.509 142.515 107.435 143.27 108.925 143.847C114.492 146.176 121.526 145.042 125.667 141.181C128.621 138.427 130.229 134.674 130.812 129.275C131.165 125.741 131.941 124.225 133.388 124.144C135.034 124.037 135.425 125.069 135.594 129.639C135.712 133.781 136.111 135.503 137.791 139.141C138.371 140.376 138.76 141.474 138.658 141.569C138.556 141.664 136.811 141.8 134.773 141.86C130.698 141.947 129.668 142.273 129.331 143.476C128.957 144.777 129.336 145.217 130.967 145.536C133.61 146.023 140.448 145.802 141.586 145.185C142.524 144.659 142.687 144.698 144.702 145.294C146.358 145.811 147.733 145.958 150.884 146.002C154.758 146.006 155.022 145.982 157.425 144.884C162.864 142.414 165.846 137.888 166.062 131.689C166.253 126.244 163.415 120.989 158.627 117.965C155.318 115.879 148.466 115.541 144.4 117.271C143.667 117.574 142.119 118.636 140.937 119.58C138.671 121.439 138.108 121.583 136.956 120.722C135.772 119.827 133.021 119.632 130.799 120.244C128.444 120.917 128.151 120.841 126.755 119.446C125.167 117.88 124.236 117.289 121.447 116.272C119.049 115.368 114.899 114.763 113.117 115.029ZM120.103 119.969C120.779 120.354 122.338 121.788 123.569 123.21C126.067 125.99 126.336 126.722 126.208 130.395C126.079 134.102 125.761 134.747 122.904 137.57C119.402 140.995 119.102 141.116 114.812 140.769C111.768 140.498 111.116 140.344 109.636 139.471C107.577 138.25 105.305 135.609 104.902 133.986C104.531 132.364 104.724 126.854 105.24 125.23C105.721 123.703 108.912 120.695 111.081 119.72C113.049 118.836 118.331 118.988 120.103 119.969ZM155.196 121.26C157.95 122.309 160.364 124.659 161.324 127.254C162.435 130.248 162.224 133.459 160.714 136.264C159.309 138.875 157.209 140.706 154.584 141.599C151.958 142.493 147.865 142.153 145.515 140.823C142.035 138.895 139.59 134.639 139.694 130.702C139.829 126.832 143.445 122.032 147.063 120.944C149.52 120.175 152.667 120.318 155.196 121.26Z" fill="#006EFF"/>
<path d="M113.117 115.029C106.347 116.106 101.793 120.512 100.472 127.296C99.9076 130.298 100.187 133.592 101.252 135.993C101.648 136.894 103.059 138.782 104.483 140.342C106.509 142.515 107.435 143.27 108.925 143.847C114.492 146.176 121.526 145.042 125.667 141.181C128.621 138.427 130.229 134.674 130.812 129.275C131.165 125.741 131.941 124.225 133.388 124.144C135.034 124.037 135.425 125.069 135.594 129.639C135.712 133.781 136.111 135.503 137.791 139.141C138.371 140.376 138.76 141.474 138.658 141.569C138.556 141.664 136.811 141.8 134.773 141.86C130.698 141.947 129.668 142.273 129.331 143.476C128.957 144.777 129.336 145.217 130.967 145.536C133.61 146.023 140.448 145.802 141.586 145.185C142.524 144.659 142.687 144.698 144.702 145.294C146.358 145.811 147.733 145.958 150.884 146.002C154.758 146.006 155.022 145.982 157.425 144.884C162.864 142.414 165.846 137.888 166.062 131.689C166.253 126.244 163.415 120.989 158.627 117.965C155.318 115.879 148.466 115.541 144.4 117.271C143.667 117.574 142.119 118.636 140.937 119.58C138.671 121.439 138.108 121.583 136.956 120.722C135.772 119.827 133.021 119.632 130.799 120.244C128.444 120.917 128.151 120.841 126.755 119.446C125.167 117.88 124.236 117.289 121.447 116.272C119.049 115.368 114.899 114.763 113.117 115.029ZM120.103 119.969C120.779 120.354 122.338 121.788 123.569 123.21C126.067 125.99 126.336 126.722 126.208 130.395C126.079 134.102 125.761 134.747 122.904 137.57C119.402 140.995 119.102 141.116 114.812 140.769C111.768 140.498 111.116 140.344 109.636 139.471C107.577 138.25 105.305 135.609 104.902 133.986C104.531 132.364 104.724 126.854 105.24 125.23C105.721 123.703 108.912 120.695 111.081 119.72C113.049 118.836 118.331 118.988 120.103 119.969ZM155.196 121.26C157.95 122.309 160.364 124.659 161.324 127.254C162.435 130.248 162.224 133.459 160.714 136.264C159.309 138.875 157.209 140.706 154.584 141.599C151.958 142.493 147.865 142.153 145.515 140.823C142.035 138.895 139.59 134.639 139.694 130.702C139.829 126.832 143.445 122.032 147.063 120.944C149.52 120.175 152.667 120.318 155.196 121.26Z" stroke="#006EFF"/>
<path d="M113.293 124.064C111.491 124.888 109.522 126.724 109.016 128.053C108.326 129.966 109.63 132.113 111.221 131.676C111.553 131.589 112.336 130.796 112.925 129.897C114.652 127.461 116.132 127.415 117.36 129.855C118.098 131.293 119.095 131.886 120.225 131.498C122.751 130.634 121.905 126.664 118.729 124.517C116.998 123.307 115.229 123.18 113.293 124.064Z" fill="#006EFF"/>
<path d="M113.293 124.064C111.491 124.888 109.522 126.724 109.016 128.053C108.326 129.966 109.63 132.113 111.221 131.676C111.553 131.589 112.336 130.796 112.925 129.897C114.652 127.461 116.132 127.415 117.36 129.855C118.098 131.293 119.095 131.886 120.225 131.498C122.751 130.634 121.905 126.664 118.729 124.517C116.998 123.307 115.229 123.18 113.293 124.064Z" stroke="#006EFF"/>
<path d="M148.72 125.171C146.248 126.366 144.836 128.254 144.759 130.451C144.668 133.995 147.003 133.912 149 130.304C150.299 127.919 151.701 128.198 153.239 131.174C154.901 134.352 156.914 134.094 157.032 130.716C157.108 128.518 156.3 127.209 154.018 125.783C152.122 124.6 150.29 124.405 148.72 125.171Z" fill="#006EFF"/>
<path d="M148.72 125.171C146.248 126.366 144.836 128.254 144.759 130.451C144.668 133.995 147.003 133.912 149 130.304C150.299 127.919 151.701 128.198 153.239 131.174C154.901 134.352 156.914 134.094 157.032 130.716C157.108 128.518 156.3 127.209 154.018 125.783C152.122 124.6 150.29 124.405 148.72 125.171Z" stroke="#006EFF"/>
<path d="M105.91 159.653C110.048 166.895 116.255 166.895 120.393 159.653" stroke="#161A1D" stroke-width="4.125" stroke-linecap="round"/>
<path d="M74.1865 208.623C99.7664 255.69 143.562 184.357 194.563 201.802C195.315 202.059 195.498 203.044 194.876 203.539C189.07 208.162 184.831 210.501 178.77 212.513C177.732 212.858 177.803 214.44 178.871 214.676C184.15 215.843 187.802 217.082 192.476 219.205C193.221 219.544 193.28 220.57 192.568 220.974C187.667 223.759 183.055 225.033 174.901 225.836C173.807 225.943 173.563 227.505 174.57 227.947C180.985 230.76 184.078 232.965 186.171 236.236C186.57 236.86 186.13 237.655 185.39 237.703C178.775 238.125 174.577 237.684 169.88 236.198C168.811 235.86 167.941 237.2 168.731 237.996C172.581 241.876 175.557 245.382 172.657 247.788C172.538 247.886 172.38 247.954 172.228 247.983C151.833 251.817 158.834 219.089 111.43 250.005C79.3588 266.558 43.1497 234.487 52.4606 191.036" stroke="#161A1D" stroke-width="5.775" stroke-linecap="round"/>
<path d="M190.054 260.966C185.419 265.022 181.738 268.709 176.911 273.978C176.346 274.595 176.714 275.592 177.545 275.69C180.418 276.028 183.145 276.299 185.683 276.484M190.054 260.966C202.047 261.297 208.988 260.928 217.987 263.035M190.054 260.966C195.373 256.311 201.073 252.047 207.641 247.911M190.054 260.966L207.641 247.911M217.987 263.035L203.503 274.415C201.202 276.717 194.616 277.134 185.683 276.484M217.987 263.035L228.52 254.759M207.641 247.911C213.637 244.136 220.355 240.469 228.169 236.71C228.776 236.418 229.495 236.777 229.627 237.438L230.608 242.344M207.641 247.911C219.124 248.438 223.501 250.063 228.52 254.759M228.52 254.759L231.971 252.048C232.277 251.807 232.422 251.414 232.346 251.031L230.608 242.344M185.683 276.484C201.523 261.859 210.868 254.01 230.608 242.344" stroke="#FFAC4A" stroke-width="4.1382" stroke-linecap="round"/>
<path d="M279.563 196.553C270.219 203.201 265.612 215.9 267.645 217.934C272.65 221.937 286.37 217.225 290.068 201.925C290.245 201.192 289.572 200.555 288.841 200.737L286.267 201.381C280.35 202.367 283.834 198.653 280.588 196.511C280.276 196.305 279.867 196.336 279.563 196.553Z" stroke="#006EFF" stroke-width="4.1382" stroke-linecap="round"/>
<path d="M228.331 228.279C228.331 228.279 182.342 258.539 158.04 278.534C156.116 280.117 156.667 283.115 159.077 283.746C180.05 289.238 210.651 284.118 240.745 270.751M228.331 228.279C225.506 199.302 210.475 187.355 317.254 151.056C317.935 150.824 318.737 150.77 319.315 151.198C326.869 156.791 317.567 194.725 303.059 227.735C302.9 228.096 302.678 228.424 302.401 228.705C284.829 246.569 262.925 260.9 240.745 270.751M228.331 228.279C228.671 230.537 229.013 232.659 229.365 234.678C231.69 247.984 234.508 256.84 240.745 270.751" stroke="#161A1D" stroke-width="4.1382" stroke-linecap="round"/>
</svg>
