<svg width="100" height="100" viewBox="0 0 100 100" fill="none" xmlns="http://www.w3.org/2000/svg">
<path d="M0 8C0 3.58172 3.58172 0 8 0H92C96.4183 0 100 3.58172 100 8V92C100 96.4183 96.4183 100 92 100H8C3.58172 100 0 96.4183 0 92V8Z" fill="#F8E6A0"/>
<path d="M59.6396 56.75C60.4201 56.75 61.0409 56.2589 61.5984 55.572C62.7395 54.166 60.8659 53.0425 60.1515 52.4923C59.425 51.9329 58.614 51.616 57.7917 51.5417M56.75 49.4583C58.1882 49.4583 59.3542 48.2924 59.3542 46.8542C59.3542 45.4159 58.1882 44.25 56.75 44.25" stroke="#533F04" stroke-width="1.5" stroke-linecap="round"/>
<path d="M41.3604 56.75C40.5799 56.75 39.959 56.2589 39.4016 55.572C38.2605 54.166 40.134 53.0425 40.8486 52.4923C41.575 51.9329 42.386 51.616 43.2083 51.5417M43.7292 49.4583C42.2909 49.4583 41.125 48.2924 41.125 46.8542C41.125 45.4159 42.2909 44.25 43.7292 44.25" stroke="#533F04" stroke-width="1.5" stroke-linecap="round"/>
<path d="M46.4206 53.7409C45.3563 54.399 42.5656 55.7429 44.2653 57.4244C45.0956 58.2459 46.0203 58.8334 47.183 58.8334H53.8171C54.9797 58.8334 55.9044 58.2459 56.7347 57.4244C58.4344 55.7429 55.6438 54.399 54.5794 53.7409C52.0834 52.1975 48.9166 52.1975 46.4206 53.7409Z" stroke="#533F04" stroke-width="1.5" stroke-linecap="round" stroke-linejoin="round"/>
<path d="M54.1458 45.8125C54.1458 47.826 52.5135 49.4583 50.5 49.4583C48.4865 49.4583 46.8542 47.826 46.8542 45.8125C46.8542 43.7989 48.4865 42.1666 50.5 42.1666C52.5135 42.1666 54.1458 43.7989 54.1458 45.8125Z" stroke="#533F04" stroke-width="1.5"/>
</svg>
