<svg width="101" height="100" viewBox="0 0 101 100" fill="none" xmlns="http://www.w3.org/2000/svg">
<rect width="101" height="100" fill="#121212"/>
<g clip-path="url(#clip0_1096_2013)">
<path d="M-172 -449C-172 -462.255 -161.255 -473 -148 -473H234C247.255 -473 258 -462.255 258 -449V435C258 448.255 247.255 459 234 459H-148C-161.255 459 -172 448.255 -172 435V-449Z" fill="white"/>
<path d="M0.410156 8C0.410156 3.58172 3.99188 0 8.41016 0H92.4102C96.8284 0 100.41 3.58172 100.41 8V92C100.41 96.4183 96.8284 100 92.4102 100H8.41015C3.99188 100 0.410156 96.4183 0.410156 92V8Z" fill="#F8E6A0"/>
<path d="M45.2227 47.375C46.0856 47.375 46.7852 46.6754 46.7852 45.8125C46.7852 44.9496 46.0856 44.25 45.2227 44.25C44.3597 44.25 43.6602 44.9496 43.6602 45.8125C43.6602 46.6754 44.3597 47.375 45.2227 47.375Z" stroke="#533F04" stroke-width="1.5625" stroke-linecap="round" stroke-linejoin="round"/>
<path d="M40.0142 50.4998C40.0142 45.8349 40.0142 43.5024 41.4634 42.0532C42.9126 40.604 45.2451 40.604 49.91 40.604C54.5749 40.604 56.9074 40.604 58.3567 42.0532C59.8058 43.5024 59.8058 45.8349 59.8058 50.4998C59.8058 55.1647 59.8058 57.4972 58.3567 58.9465C56.9074 60.3957 54.5749 60.3957 49.91 60.3957C45.2451 60.3957 42.9126 60.3957 41.4634 58.9465C40.0142 57.4972 40.0142 55.1647 40.0142 50.4998Z" stroke="#533F04" stroke-width="1.5625"/>
<path d="M42.6187 59.8749C47.1733 54.4323 52.2792 47.2541 59.8035 52.1066" stroke="#533F04" stroke-width="1.5625"/>
</g>
<defs>
<clipPath id="clip0_1096_2013">
<path d="M-172 -449C-172 -462.255 -161.255 -473 -148 -473H234C247.255 -473 258 -462.255 258 -449V435C258 448.255 247.255 459 234 459H-148C-161.255 459 -172 448.255 -172 435V-449Z" fill="white"/>
</clipPath>
</defs>
</svg>
