<svg width="15" height="15" viewBox="0 0 15 15" fill="none" xmlns="http://www.w3.org/2000/svg">
<mask id="mask0_1593_2423" style="mask-type:alpha" maskUnits="userSpaceOnUse" x="0" y="0" width="15" height="15">
<rect width="15" height="15" fill="#D9D9D9"/>
</mask>
<g mask="url(#mask0_1593_2423)">
<path d="M6.87517 12.5C6.69809 12.5 6.54965 12.4401 6.42986 12.3203C6.31007 12.2005 6.25017 12.0521 6.25017 11.875V8.125L2.62517 3.5C2.46892 3.29167 2.44548 3.07292 2.55486 2.84375C2.66423 2.61458 2.85434 2.5 3.12517 2.5H11.8752C12.146 2.5 12.3361 2.61458 12.4455 2.84375C12.5549 3.07292 12.5314 3.29167 12.3752 3.5L8.75017 8.125V11.875C8.75017 12.0521 8.69028 12.2005 8.57049 12.3203C8.45069 12.4401 8.30226 12.5 8.12517 12.5H6.87517ZM7.50017 7.6875L10.5939 3.75H4.40642L7.50017 7.6875Z" fill="#161A1D"/>
</g>
</svg>
