<svg width="14" height="18" viewBox="0 0 14 18" fill="none" xmlns="http://www.w3.org/2000/svg">
<path d="M3.66683 9.00008V7.33341H10.3335V9.00008H3.66683ZM3.66683 5.66675V4.00008H10.3335V5.66675H3.66683ZM2.00016 10.6667H8.25016C8.65294 10.6667 9.02794 10.7536 9.37516 10.9272C9.72239 11.1008 10.0141 11.3473 10.2502 11.6667L12.0002 13.9584V2.33341H2.00016V10.6667ZM2.00016 15.6667H11.2085L8.93766 12.6876C8.85433 12.5765 8.75364 12.4897 8.63558 12.4272C8.51752 12.3647 8.38905 12.3334 8.25016 12.3334H2.00016V15.6667ZM12.0002 17.3334H2.00016C1.54183 17.3334 1.14947 17.1702 0.823079 16.8438C0.496691 16.5174 0.333496 16.1251 0.333496 15.6667V2.33341C0.333496 1.87508 0.496691 1.48272 0.823079 1.15633C1.14947 0.829943 1.54183 0.666748 2.00016 0.666748H12.0002C12.4585 0.666748 12.8509 0.829943 13.1772 1.15633C13.5036 1.48272 13.6668 1.87508 13.6668 2.33341V15.6667C13.6668 16.1251 13.5036 16.5174 13.1772 16.8438C12.8509 17.1702 12.4585 17.3334 12.0002 17.3334Z" fill="#006EFF"/>
</svg>
