<svg width="18" height="17" viewBox="0 0 18 17" fill="none" xmlns="http://www.w3.org/2000/svg">
<path d="M12.3332 8.16675C12.5693 8.16675 12.7672 8.08689 12.9269 7.92717C13.0866 7.76744 13.1665 7.56953 13.1665 7.33341C13.1665 7.0973 13.0866 6.89939 12.9269 6.73966C12.7672 6.57994 12.5693 6.50008 12.3332 6.50008C12.0971 6.50008 11.8991 6.57994 11.7394 6.73966C11.5797 6.89939 11.4998 7.0973 11.4998 7.33341C11.4998 7.56953 11.5797 7.76744 11.7394 7.92717C11.8991 8.08689 12.0971 8.16675 12.3332 8.16675ZM5.6665 6.50008H9.83317V4.83341H5.6665V6.50008ZM2.74984 16.5001C2.27761 14.9167 1.81234 13.3369 1.354 11.7605C0.895671 10.1841 0.666504 8.56953 0.666504 6.91675C0.666504 5.63897 1.11095 4.55564 1.99984 3.66675C2.88873 2.77786 3.97206 2.33341 5.24984 2.33341H9.4165C9.81928 1.80564 10.3089 1.39591 10.8853 1.10425C11.4616 0.812581 12.0832 0.666748 12.7498 0.666748C13.0971 0.666748 13.3922 0.788276 13.6353 1.03133C13.8783 1.27439 13.9998 1.56953 13.9998 1.91675C13.9998 2.00008 13.9894 2.08341 13.9686 2.16675C13.9478 2.25008 13.9234 2.32647 13.8957 2.39591C13.8401 2.54869 13.788 2.70494 13.7394 2.86466C13.6908 3.02439 13.6526 3.18758 13.6248 3.35425L15.5207 5.25008H17.3332V11.0626L14.979 11.8334L13.5832 16.5001H8.99984V14.8334H7.33317V16.5001H2.74984ZM3.99984 14.8334H5.6665V13.1667H10.6665V14.8334H12.3332L13.6248 10.5417L15.6665 9.85425V6.91675H14.8332L11.9165 4.00008C11.9165 3.7223 11.9339 3.45494 11.9686 3.198C12.0033 2.94105 12.0554 2.68064 12.1248 2.41675C11.7221 2.52786 11.3679 2.71883 11.0623 2.98966C10.7568 3.2605 10.5346 3.5973 10.3957 4.00008H5.24984C4.44428 4.00008 3.75678 4.2848 3.18734 4.85425C2.61789 5.42369 2.33317 6.11119 2.33317 6.91675C2.33317 8.27786 2.52067 9.60772 2.89567 10.9063C3.27067 12.2049 3.63873 13.514 3.99984 14.8334Z" fill="#006EFF"/>
</svg>
