<svg width="58" height="58" viewBox="0 0 58 58" fill="none" xmlns="http://www.w3.org/2000/svg">
<g filter="url(#filter0_d_2433_4617)">
<circle cx="28.75" cy="28.0402" r="25" fill="white"/>
</g>
<path d="M21.8848 15.3961L23.2441 14.7477L24.6637 14.245L26.1281 13.8934L27.6212 13.6969L29.1266 13.6575L30.628 13.7756L32.1087 14.0501L33.5527 14.4778L34.944 15.0541L36.2675 15.7727L37.5086 16.6257L38.6538 17.6037L39.6904 18.6961L40.6072 19.8909L41.3941 21.175L42.0424 22.5343L42.5451 23.9538L42.8967 25.4182L43.0933 26.9113L43.1327 28.4168L43.0145 29.9181L42.7401 31.3989L42.3124 32.8429L41.7361 34.2342L41.0175 35.5577L40.1645 36.7988L39.1864 37.944L38.094 38.9806L36.8992 39.8974L35.6152 40.6843L34.2559 41.3326L32.8363 41.8353L31.3719 42.1869L29.8788 42.3834L28.3734 42.4229L26.872 42.3047L25.3913 42.0303L23.9473 41.6025L22.556 41.0262L21.2325 40.3076L19.9914 39.4546L18.8462 38.4766L17.8096 37.3842L16.8928 36.1894L16.1059 34.9053L15.4576 33.5461L14.9549 32.1265L14.6033 30.6621L14.4067 29.169L14.3673 27.6635L14.4855 26.1622L14.7599 24.6814L15.1876 23.2375L15.7639 21.8461L16.4825 20.5226L17.3355 19.2815L18.3136 18.1364L19.406 17.0997L20.6008 16.1829L21.8848 15.3961Z" fill="#EB5757" stroke="#EB5757" stroke-width="1.83688"/>
<path d="M30.0279 21.5315L29.7905 30.2619H27.5622L27.3187 21.5315H30.0279ZM28.6763 34.1583C28.2745 34.1583 27.9295 34.0162 27.6413 33.7321C27.3532 33.4439 27.2111 33.099 27.2152 32.6971C27.2111 32.2994 27.3532 31.9584 27.6413 31.6743C27.9295 31.3902 28.2745 31.2482 28.6763 31.2482C29.0619 31.2482 29.4008 31.3902 29.693 31.6743C29.9853 31.9584 30.1334 32.2994 30.1375 32.6971C30.1334 32.965 30.0624 33.2106 29.9244 33.4338C29.7905 33.653 29.6139 33.8295 29.3947 33.9635C29.1756 34.0934 28.9361 34.1583 28.6763 34.1583Z" fill="white"/>
<defs>
<filter id="filter0_d_2433_4617" x="0" y="0.290161" width="57.5" height="57.5" filterUnits="userSpaceOnUse" color-interpolation-filters="sRGB">
<feFlood flood-opacity="0" result="BackgroundImageFix"/>
<feColorMatrix in="SourceAlpha" type="matrix" values="0 0 0 0 0 0 0 0 0 0 0 0 0 0 0 0 0 0 127 0" result="hardAlpha"/>
<feOffset dy="1"/>
<feGaussianBlur stdDeviation="1.875"/>
<feComposite in2="hardAlpha" operator="out"/>
<feColorMatrix type="matrix" values="0 0 0 0 0.0352941 0 0 0 0 0.172549 0 0 0 0 0.298039 0 0 0 0.4 0"/>
<feBlend mode="normal" in2="BackgroundImageFix" result="effect1_dropShadow_2433_4617"/>
<feBlend mode="normal" in="SourceGraphic" in2="effect1_dropShadow_2433_4617" result="shape"/>
</filter>
</defs>
</svg>
