<svg width="166" height="126" viewBox="0 0 166 126" fill="none" xmlns="http://www.w3.org/2000/svg">
<rect width="3.75" height="187.5" transform="translate(4.5 -52.9598)" fill="white"/>
<rect width="3.75" height="187.5" transform="translate(23.25 -52.9598)" fill="white"/>
<rect width="3.75" height="187.5" transform="translate(42 -52.9598)" fill="white"/>
<rect width="3.75" height="187.5" transform="translate(60.75 -52.9598)" fill="white"/>
<rect width="3.75" height="187.5" transform="translate(79.5 -52.9598)" fill="white"/>
<rect width="3.75" height="187.5" transform="translate(98.25 -52.9598)" fill="white"/>
<rect width="3.75" height="187.5" transform="translate(117 -52.9598)" fill="white"/>
<rect width="3.75" height="187.5" transform="translate(135.75 -52.9598)" fill="white"/>
<rect width="3.75" height="187.5" transform="matrix(0 1 1 0 -21.75 10.7902)" fill="white"/>
<rect width="3.75" height="187.5" transform="matrix(0 1 1 0 -21.75 29.5402)" fill="white"/>
<rect width="3.75" height="187.5" transform="matrix(0 1 1 0 -21.75 48.2902)" fill="white"/>
<rect width="3.75" height="187.5" transform="matrix(0 1 1 0 -21.75 67.0402)" fill="white"/>
<rect width="3.75" height="187.5" transform="matrix(0 1 1 0 -21.75 85.7902)" fill="white"/>
<rect width="3.75" height="187.5" transform="matrix(0 1 1 0 -21.75 104.54)" fill="white"/>
<rect width="3.75" height="187.5" transform="matrix(0 1 1 0 -21.75 123.29)" fill="white"/>
</svg>
