<svg width="18" height="18" viewBox="0 0 18 18" fill="none" xmlns="http://www.w3.org/2000/svg">
<path d="M8.16699 10.6667H9.83366V8.16675H12.3337V6.50008H9.83366V4.00008H8.16699V6.50008H5.66699V8.16675H8.16699V10.6667ZM0.666992 17.3334V2.33341C0.666992 1.87508 0.830187 1.48272 1.15658 1.15633C1.48296 0.829943 1.87533 0.666748 2.33366 0.666748H15.667C16.1253 0.666748 16.5177 0.829943 16.8441 1.15633C17.1705 1.48272 17.3337 1.87508 17.3337 2.33341V12.3334C17.3337 12.7917 17.1705 13.1841 16.8441 13.5105C16.5177 13.8369 16.1253 14.0001 15.667 14.0001H4.00033L0.666992 17.3334ZM3.29199 12.3334H15.667V2.33341H2.33366V13.2709L3.29199 12.3334Z" fill="#006EFF"/>
</svg>
