<svg width="10" height="11" viewBox="0 0 10 11" fill="none" xmlns="http://www.w3.org/2000/svg">
<mask id="mask0_1842_2886" style="mask-type:alpha" maskUnits="userSpaceOnUse" x="0" y="0" width="10" height="11">
<rect y="0.5" width="10" height="10" fill="#D9D9D9"/>
</mask>
<g mask="url(#mask0_1842_2886)">
<path d="M4.99984 7.16675C5.52067 7.16675 5.96338 6.98446 6.32796 6.61987C6.69255 6.25529 6.87484 5.81258 6.87484 5.29175C6.87484 4.77091 6.69255 4.32821 6.32796 3.96362C5.96338 3.59904 5.52067 3.41675 4.99984 3.41675C4.479 3.41675 4.0363 3.59904 3.67171 3.96362C3.30713 4.32821 3.12484 4.77091 3.12484 5.29175C3.12484 5.81258 3.30713 6.25529 3.67171 6.61987C4.0363 6.98446 4.479 7.16675 4.99984 7.16675ZM4.99984 6.41675C4.68734 6.41675 4.42171 6.30737 4.20296 6.08862C3.98421 5.86987 3.87484 5.60425 3.87484 5.29175C3.87484 4.97925 3.98421 4.71362 4.20296 4.49487C4.42171 4.27612 4.68734 4.16675 4.99984 4.16675C5.31234 4.16675 5.57796 4.27612 5.79671 4.49487C6.01546 4.71362 6.12484 4.97925 6.12484 5.29175C6.12484 5.60425 6.01546 5.86987 5.79671 6.08862C5.57796 6.30737 5.31234 6.41675 4.99984 6.41675ZM4.99984 8.41675C3.98595 8.41675 3.06234 8.13376 2.229 7.56779C1.39567 7.00182 0.791504 6.24314 0.416504 5.29175C0.791504 4.34036 1.39567 3.58168 2.229 3.01571C3.06234 2.44973 3.98595 2.16675 4.99984 2.16675C6.01373 2.16675 6.93734 2.44973 7.77067 3.01571C8.604 3.58168 9.20817 4.34036 9.58317 5.29175C9.20817 6.24314 8.604 7.00182 7.77067 7.56779C6.93734 8.13376 6.01373 8.41675 4.99984 8.41675ZM4.99984 7.58341C5.78456 7.58341 6.50505 7.37682 7.1613 6.96362C7.81755 6.55043 8.31928 5.99314 8.6665 5.29175C8.31928 4.59036 7.81755 4.03307 7.1613 3.61987C6.50505 3.20668 5.78456 3.00008 4.99984 3.00008C4.21512 3.00008 3.49463 3.20668 2.83838 3.61987C2.18213 4.03307 1.68039 4.59036 1.33317 5.29175C1.68039 5.99314 2.18213 6.55043 2.83838 6.96362C3.49463 7.37682 4.21512 7.58341 4.99984 7.58341Z" fill="#B3B9C4"/>
</g>
</svg>
