<svg width="330" height="330" viewBox="0 0 330 330" fill="none" xmlns="http://www.w3.org/2000/svg">
<path d="M109.773 138.755C113.472 117.182 145.893 125.201 145.923 125.209C145.924 125.209 145.924 125.209 145.925 125.209C188.632 135.152 190.908 105.602 179.133 96.1036" stroke="#161A1D" stroke-width="4.95" stroke-linecap="round"/>
<path d="M103.637 149.585C103.637 170.117 106.036 187.276 110.136 200.797C123.72 245.606 155.964 250.474 181.373 205.831" stroke="#161A1D" stroke-width="4.95" stroke-linecap="round"/>
<path d="M161.112 156.769C161.433 156.667 161.707 156.636 161.954 156.704C162.202 156.773 162.42 156.941 162.63 157.232C163.048 157.815 163.435 158.895 163.951 160.681L163.951 160.682C164.405 162.304 164.795 163.435 165.327 164.477C165.858 165.519 166.531 166.473 167.552 167.743C167.903 168.174 168.209 168.587 168.42 168.904C168.525 169.063 168.607 169.198 168.659 169.299C168.685 169.35 168.703 169.393 168.713 169.426C168.718 169.443 168.721 169.458 168.722 169.47C168.723 169.483 168.721 169.495 168.715 169.504C168.709 169.513 168.698 169.522 168.684 169.53C168.67 169.539 168.651 169.549 168.628 169.561C168.582 169.583 168.517 169.61 168.437 169.642C168.276 169.705 168.052 169.784 167.779 169.874C167.234 170.055 166.497 170.28 165.698 170.504L165.698 170.504C164.099 170.94 163.113 171.272 162.525 171.622C162.23 171.796 162.036 171.975 161.913 172.172C161.79 172.369 161.738 172.586 161.731 172.838L161.731 172.838C161.712 173.388 161.798 173.725 162.053 173.917C162.181 174.014 162.352 174.076 162.576 174.109C162.8 174.142 163.076 174.146 163.413 174.129C164.503 174.061 166.385 173.647 168.093 173.161C168.947 172.918 169.757 172.657 170.402 172.413C170.724 172.291 171.005 172.173 171.229 172.063C171.454 171.953 171.621 171.853 171.717 171.765C172.036 171.465 172.231 171.313 172.562 171.246C172.891 171.179 173.354 171.197 174.207 171.234L174.207 171.234C175.615 171.317 176.727 171.162 179.222 170.577C180.752 170.197 181.566 169.99 182.208 169.711C182.849 169.432 183.319 169.08 184.159 168.41L184.159 168.41C187.962 165.394 189.423 161.24 188.375 156.31C187.455 151.98 184.185 148.395 179.816 146.951C178.307 146.455 176.186 146.476 174.082 146.893C171.978 147.309 169.895 148.12 168.462 149.201L168.462 149.201C168.204 149.392 167.822 149.773 167.41 150.229C166.999 150.684 166.559 151.214 166.186 151.703C165.83 152.181 165.537 152.554 165.281 152.837C165.025 153.121 164.805 153.315 164.595 153.435C164.384 153.556 164.184 153.602 163.968 153.589C163.753 153.576 163.523 153.505 163.253 153.391L163.253 153.391C162.701 153.156 161.874 153.134 160.98 153.287C160.086 153.439 159.126 153.766 158.311 154.225C157.449 154.722 156.953 154.972 156.5 154.993C156.046 155.013 155.637 154.804 154.949 154.391C154.169 153.93 153.567 153.628 152.86 153.411C152.153 153.193 151.341 153.059 150.141 152.933L150.141 152.932C149.107 152.812 147.741 152.836 146.465 152.96C145.189 153.085 144.004 153.31 143.328 153.59C138.203 155.77 135.478 160.138 135.771 165.746C135.916 168.224 136.783 170.766 138.095 172.449L138.095 172.449C138.339 172.764 138.831 173.225 139.443 173.726C140.054 174.227 140.782 174.768 141.497 175.243C143.523 176.559 144.4 176.971 145.687 177.133L145.687 177.133L145.688 177.133C150.535 177.875 155.858 175.598 158.363 171.74C160.15 168.989 160.681 165.714 160.079 161.341C159.871 159.911 159.845 158.857 160.012 158.116C160.096 157.745 160.229 157.453 160.412 157.23C160.595 157.008 160.828 156.857 161.112 156.769ZM161.112 156.769C161.112 156.769 161.112 156.769 161.112 156.769L161.116 156.782L161.112 156.769C161.112 156.769 161.112 156.769 161.112 156.769ZM149.813 156.088L149.813 156.088C150.119 156.174 150.651 156.424 151.261 156.761C151.873 157.099 152.564 157.526 153.19 157.966C154.449 158.817 155.17 159.375 155.653 160.087C156.136 160.799 156.381 161.664 156.692 163.126C157.006 164.601 157.132 165.484 156.967 166.348C156.801 167.211 156.344 168.054 155.494 169.449L155.494 169.449C154.45 171.144 153.873 172.033 153.124 172.569C152.375 173.105 151.454 173.286 149.728 173.571L149.728 173.571C148.5 173.764 147.749 173.862 147.137 173.862C146.525 173.863 146.052 173.765 145.382 173.566L145.382 173.566C144.447 173.286 143.402 172.736 142.51 172.106C141.618 171.476 140.878 170.765 140.558 170.162L140.558 170.161C140.251 169.556 139.865 168.156 139.567 166.735C139.268 165.315 139.057 163.871 139.101 163.177L139.114 163.178L139.101 163.177C139.12 162.85 139.256 162.417 139.472 161.933C139.688 161.45 139.984 160.915 140.325 160.383C141.007 159.32 141.87 158.269 142.631 157.669L142.639 157.68L142.631 157.669C142.978 157.397 143.5 157.136 144.113 156.903C144.726 156.671 145.431 156.467 146.142 156.311C146.853 156.155 147.571 156.046 148.211 156.002C148.85 155.959 149.413 155.981 149.813 156.088ZM177.761 150.202L177.761 150.202C180.145 150.487 182.516 151.869 183.787 153.732C185.255 155.88 185.721 158.459 185.08 160.973C184.485 163.313 183.186 165.175 181.286 166.399C180.336 167.011 179.036 167.451 177.709 167.665C176.382 167.879 175.026 167.866 173.965 167.572C170.835 166.734 168.064 163.853 167.37 160.72L167.37 160.72C167.042 159.176 167.356 157.278 168.083 155.57C168.809 153.862 169.948 152.341 171.272 151.554C173.062 150.462 175.578 149.955 177.761 150.202Z" fill="#006EFF" stroke="#006EFF" stroke-width="0.026695"/>
<path d="M145.098 167.079L145.098 167.079C145.156 167.047 145.23 166.975 145.312 166.87C145.393 166.766 145.483 166.63 145.574 166.473C145.755 166.159 145.942 165.758 146.086 165.346L146.086 165.346L146.087 165.346C146.308 164.78 146.546 164.334 146.803 164.01C147.06 163.686 147.335 163.483 147.629 163.405C148.219 163.249 148.876 163.593 149.601 164.436C150.033 164.93 150.473 165.243 150.906 165.368C151.338 165.492 151.764 165.429 152.168 165.167C152.621 164.874 152.87 164.471 152.944 164.014C153.019 163.557 152.918 163.045 152.668 162.535C152.17 161.516 151.078 160.509 149.616 159.975L149.616 159.975C148.816 159.669 148.062 159.578 147.339 159.697C146.617 159.817 145.925 160.147 145.25 160.686C144.621 161.187 144.009 161.896 143.537 162.623C143.064 163.351 142.733 164.095 142.664 164.666C142.58 165.485 142.9 166.252 143.385 166.732C143.87 167.212 144.52 167.404 145.098 167.079Z" fill="#006EFF" stroke="#006EFF" stroke-width="0.026695"/>
<path d="M173.429 154.586L173.429 154.586C174.513 153.676 175.992 153.469 177.718 154.029C178.758 154.367 179.5 154.754 180.029 155.273C180.557 155.793 180.873 156.446 181.058 157.319C181.201 157.99 181.212 158.53 181.118 158.928C181.025 159.325 180.828 159.579 180.556 159.684C180.283 159.789 179.931 159.745 179.526 159.538C179.12 159.33 178.662 158.96 178.178 158.416C178.178 158.415 178.178 158.415 178.178 158.415L178.168 158.424C176.369 156.378 175.207 156.434 174.652 158.571L173.429 154.586ZM173.429 154.586C171.716 156.013 170.976 157.776 171.346 159.52C171.502 160.222 171.733 160.714 172.004 161.008C172.273 161.301 172.582 161.395 172.898 161.305C173.215 161.214 173.542 160.935 173.844 160.476C174.146 160.016 174.422 159.377 174.639 158.568L173.429 154.586Z" fill="#006EFF" stroke="#006EFF" stroke-width="0.026695"/>
<path d="M46.9088 91.011C48.2056 91.4433 49.6072 90.7424 50.0395 89.4457C50.4717 88.1489 49.7709 86.7473 48.4741 86.315L46.9088 91.011ZM51.8569 79.5452L51.2433 81.9429L51.8569 79.5452ZM37.2998 88.663C37.2998 87.2961 36.1917 86.188 34.8248 86.188C33.4579 86.188 32.3498 87.2961 32.3498 88.663H37.2998ZM12.806 87.101L15.0601 86.0789L12.806 87.101ZM28.5739 96.5051C29.1666 95.2733 28.6486 93.7944 27.4169 93.2016C26.1852 92.6089 24.7062 93.1269 24.1135 94.3586L28.5739 96.5051ZM22.0499 101.159C22.0499 99.7924 20.9418 98.6843 19.5749 98.6843C18.2079 98.6843 17.0999 99.7924 17.0999 101.159H22.0499ZM12.806 102.597L14.1659 100.529L12.806 102.597ZM20.6772 130.704C21.4656 131.82 23.0099 132.086 24.1265 131.298C25.2431 130.509 25.5091 128.965 24.7207 127.848L20.6772 130.704ZM29.962 82.7532L29.1794 85.1012L29.962 82.7532ZM29.4194 81.4573L31.5073 82.7864L29.4194 81.4573ZM61.6623 84.0033L63.8178 85.2197L61.6623 84.0033ZM61.1387 82.5027L62.0099 80.1861L61.1387 82.5027ZM110.461 199.186C84.0154 201.681 63.5139 189.218 53.9428 168.366C44.3272 147.418 45.5674 117.56 63.8178 85.2197L59.5068 82.7869C40.6931 116.126 39.0016 147.681 49.444 170.431C59.9309 193.278 82.4771 206.798 110.926 204.114L110.461 199.186ZM29.1794 85.1012L46.9088 91.011L48.4741 86.315L30.7447 80.4052L29.1794 85.1012ZM62.0099 80.1861C58.6299 78.9149 55.4419 77.9079 52.4705 77.1475L51.2433 81.9429C54.0236 82.6545 57.0394 83.6053 60.2675 84.8193L62.0099 80.1861ZM54.0902 78.4785C51.4921 73.0387 48.9414 69.5135 44.9772 65.0539L41.2776 68.3425C45.0109 72.5425 47.2706 75.6853 49.6236 80.6119L54.0902 78.4785ZM52.4705 77.1475C44.6447 75.1446 38.1077 74.7973 33.5053 76.0468L34.8023 80.8239C38.2087 79.8991 43.7718 80.0308 51.2433 81.9429L52.4705 77.1475ZM33.5053 76.0468C30.9025 76.7535 28.6555 78.0485 27.3316 80.1283L31.5073 82.7864C31.9407 82.1056 32.9029 81.3396 34.8023 80.8239L33.5053 76.0468ZM34.9497 65.6168C33.9197 67.1466 33.1093 68.5909 32.5282 70.0372L37.1213 71.8827C37.5354 70.852 38.1546 69.7199 39.0558 68.3812L34.9497 65.6168ZM32.5282 70.0372C31.3461 72.9793 31.2084 75.6956 31.71 78.8268L36.5977 78.0439C36.2055 75.5958 36.3433 73.8191 37.1213 71.8827L32.5282 70.0372ZM35.5296 68.5874C32.5111 67.6908 29.953 66.977 27.8442 66.5549C25.7946 66.1447 23.8543 65.9388 22.2046 66.3059C21.3318 66.5001 20.4875 66.8649 19.7558 67.4805C19.0216 68.0982 18.5171 68.8708 18.1843 69.7092C17.5577 71.288 17.494 73.229 17.6256 75.2836L22.5655 74.9672C22.4429 73.0538 22.5841 72.0418 22.7852 71.5352C22.8662 71.331 22.9312 71.2778 22.9426 71.2682C22.9566 71.2564 23.034 71.1924 23.2797 71.1377C23.8667 71.0071 24.9494 71.0237 26.8728 71.4086C28.737 71.7818 31.1019 72.4359 34.12 73.3325L35.5296 68.5874ZM17.6637 75.5855C19.5364 85.4843 23.404 92.3398 27.3727 95.2216C29.3376 96.6485 32.0579 97.5346 34.4315 95.9137C36.5805 94.4463 37.2998 91.6149 37.2998 88.663H32.3498C32.3498 91.1782 31.6835 91.7963 31.6402 91.8259C31.6366 91.8283 31.6373 91.8274 31.6414 91.8257C31.6456 91.8239 31.6477 91.8236 31.6456 91.824C31.6433 91.8245 31.6004 91.8333 31.5019 91.8182C31.2878 91.7852 30.8733 91.6462 30.2812 91.2162C27.7964 89.4119 24.2994 84.0316 22.5274 74.6653L17.6637 75.5855ZM19.8589 72.6617C17.2681 72.9106 15.0614 73.2251 13.3215 73.752C11.6004 74.2733 9.92612 75.1222 8.9301 76.7413C7.91945 78.3842 7.95012 80.2556 8.32294 82.008C8.69601 83.7616 9.49903 85.801 10.5519 88.1231L15.0601 86.0789C14.0303 83.8078 13.4196 82.1769 13.1646 80.978C12.9093 79.7778 13.0973 79.4144 13.1462 79.335C13.2097 79.2317 13.4971 78.8709 14.7562 78.4896C15.9966 78.1139 17.7889 77.8333 20.3322 77.589L19.8589 72.6617ZM10.5519 88.1231C13.0826 93.7042 16.0318 97.8228 19.1224 99.6643C20.7375 100.627 22.6416 101.102 24.5477 100.454C26.413 99.8185 27.7116 98.2969 28.5739 96.5051L24.1135 94.3586C23.5825 95.4619 23.1121 95.7133 22.9525 95.7676C22.8338 95.808 22.4573 95.8893 21.656 95.4119C19.9139 94.3739 17.4875 91.432 15.0601 86.0789L10.5519 88.1231ZM12.0883 84.7323C9.10492 85.6364 6.86083 87.0282 5.50611 88.9601C4.11053 90.9503 3.88919 93.1832 4.33099 95.2341C5.16757 99.1177 8.4015 102.663 11.4461 104.665L14.1659 100.529C11.7386 98.9331 9.63446 96.3479 9.16999 94.1917C8.96125 93.2227 9.09865 92.4585 9.55896 91.8021C10.0601 91.0874 11.1691 90.1832 13.5238 89.4696L12.0883 84.7323ZM11.4461 104.665C13.2622 105.859 15.5647 106.876 17.7124 106.639C18.8991 106.508 20.1002 105.978 20.9549 104.856C21.767 103.79 22.0499 102.473 22.0499 101.159H17.0999C17.0999 101.817 16.9534 101.94 17.0174 101.856C17.124 101.716 17.2582 101.709 17.1695 101.719C17.021 101.736 16.6667 101.718 16.0861 101.516C15.5255 101.32 14.8678 100.991 14.1659 100.529L11.4461 104.665ZM10.331 102.6C10.3363 108.402 11.1058 112.928 12.8459 117.324C14.5639 121.664 17.1831 125.755 20.6772 130.704L24.7207 127.848C21.2573 122.943 18.935 119.257 17.4484 115.502C15.984 111.803 15.2858 107.916 15.281 102.595L10.331 102.6ZM44.9772 65.0539C42.3048 62.0475 37.341 62.0649 34.9497 65.6168L39.0558 68.3812C39.4976 67.725 40.5797 67.5575 41.2776 68.3425L44.9772 65.0539ZM30.7447 80.4052C31.1125 80.5278 31.4454 80.8072 31.6284 81.2218C31.8272 81.6721 31.8324 82.2757 31.5073 82.7864L27.3316 80.1283C25.9438 82.3084 27.4857 84.5366 29.1794 85.1012L30.7447 80.4052ZM63.8178 85.2197C64.8333 83.4202 64.1102 80.9759 62.0099 80.1861L60.2675 84.8193C59.3605 84.4782 59.1179 83.4761 59.5068 82.7869L63.8178 85.2197Z" fill="#161A1D"/>
<path d="M267.938 202.691L306.537 205.833C309.958 206.111 312.963 203.579 313.268 200.161L322.048 101.723C322.357 98.2593 319.779 95.21 316.312 94.9386L272.955 91.5455C267.283 91.1016 262.305 95.2913 261.774 100.955L256.483 157.392" stroke="#27AE60" stroke-width="5.5539"/>
<path d="M240.343 103.241C235.434 110.535 234.02 115.35 234.615 125.63M248.153 109.489C242.876 120.304 241.631 126.836 241.905 139.168" stroke="#FFAC4A" stroke-width="3.7026" stroke-linecap="round"/>
<path d="M280.434 117.301L285.358 125.358C285.742 125.987 286.641 126.028 287.082 125.436L302.823 104.284" stroke="#27AE60" stroke-width="5.5539" stroke-linecap="round"/>
<path d="M210.144 213.105C217.285 206.473 226.926 174.353 242.983 156.895C243.468 156.367 244.323 156.502 244.644 157.144L246.41 160.675C246.743 161.342 247.648 161.453 248.132 160.887L252.398 155.911C252.867 155.364 253.736 155.447 254.093 156.072L256.771 160.759C257.134 161.394 258.022 161.467 258.484 160.899L263.368 154.887C263.821 154.33 264.687 154.387 265.063 154.998L267.557 159.05C267.967 159.717 268.939 159.71 269.342 159.038C275.009 149.588 281.429 139.74 286.615 134.752C287.313 134.081 288.322 134.728 288.078 135.665C284.748 148.486 279.611 161.904 270.542 182.905M267.418 189.674C268.524 187.139 269.537 185.233 270.542 182.905M270.542 182.905C283.519 199.567 258.567 205.815 221.598 236.015" stroke="#161A1D" stroke-width="4.95" stroke-linecap="round"/>
<path d="M161.904 187.949C153.623 193.693 146.051 195.534 142.942 189.561C142.704 189.104 141.903 189.222 141.898 189.737C141.711 206.9 160.409 203.862 163.316 188.805C163.47 188.009 162.57 187.486 161.904 187.949Z" stroke="#161A1D" stroke-width="3.63"/>
</svg>
