<svg width="351" height="169" viewBox="0 0 351 169" fill="none" xmlns="http://www.w3.org/2000/svg">
<path d="M135.725 70.0959C141.352 50.1204 171.129 60.8952 171.156 60.9053C171.157 60.9056 171.157 60.9055 171.158 60.9058C210.443 74.5142 215.519 46.8763 205.357 36.753" stroke="#161A1D" stroke-width="4.67415" stroke-linecap="round"/>
<path d="M131.528 83.8491C131.528 103.316 133.803 119.585 137.69 132.405C151.733 169.09 182.595 171.786 205.233 137.177" stroke="#161A1D" stroke-width="4.67415" stroke-linecap="round"/>
<path d="M186.708 90.2664C187.98 89.8602 188.489 90.5942 189.518 94.1522M186.708 90.2664C185.586 90.6135 185.274 91.9568 185.689 94.803C186.289 99.1584 185.76 102.422 183.979 105.165C181.482 109.01 176.177 111.279 171.346 110.54L189.518 94.1522M186.708 90.2664L186.704 90.2538C186.704 90.2538 186.704 90.2538 186.704 90.2538M186.708 90.2664L186.704 90.2538C186.704 90.2538 186.704 90.2538 186.704 90.2538M189.518 94.1522C190.422 97.3834 191.073 98.6577 193.105 101.187L189.518 94.1522ZM186.704 90.2538C187.023 90.1519 187.297 90.1209 187.543 90.1891C187.789 90.2574 188.007 90.4247 188.215 90.715C188.632 91.2947 189.016 92.3701 189.53 94.1485L189.53 94.1487C189.982 95.7639 190.371 96.8893 190.9 97.9268C191.429 98.9643 192.099 99.9144 193.115 101.179C193.465 101.608 193.77 102.019 193.98 102.334C194.085 102.492 194.166 102.627 194.217 102.728C194.243 102.778 194.261 102.821 194.271 102.854C194.276 102.871 194.28 102.886 194.28 102.898C194.281 102.911 194.279 102.923 194.273 102.932C194.268 102.94 194.257 102.949 194.243 102.958C194.229 102.967 194.21 102.977 194.187 102.988C194.141 103.01 194.077 103.038 193.997 103.069C193.837 103.131 193.613 103.21 193.342 103.3C192.799 103.48 192.065 103.704 191.27 103.927L191.27 103.927C189.677 104.361 188.697 104.692 188.11 105.04C187.818 105.214 187.624 105.391 187.502 105.588C187.379 105.784 187.328 106 187.32 106.251L187.32 106.251C187.301 106.798 187.388 107.133 187.641 107.325C187.768 107.422 187.938 107.483 188.162 107.516C188.385 107.548 188.66 107.553 188.995 107.536C190.08 107.468 191.954 107.056 193.654 106.572C194.504 106.331 195.311 106.071 195.953 105.828C196.274 105.706 196.553 105.588 196.777 105.479C197.001 105.37 197.167 105.27 197.262 105.182C197.579 104.884 197.774 104.732 198.103 104.666C198.431 104.599 198.892 104.617 199.741 104.654L199.741 104.654C201.143 104.736 202.25 104.582 204.734 104C206.257 103.622 207.067 103.416 207.707 103.138C208.345 102.86 208.813 102.51 209.649 101.843L209.649 101.843C213.435 98.8398 214.89 94.7045 213.846 89.7962C212.93 85.4859 209.675 81.9167 205.325 80.4798C203.823 79.9855 201.711 80.0067 199.617 80.4213C197.522 80.836 195.448 81.6435 194.022 82.7198L194.021 82.7199C193.764 82.9098 193.384 83.2888 192.974 83.7426C192.565 84.1962 192.127 84.7237 191.755 85.21C191.401 85.686 191.11 86.0574 190.855 86.3395C190.6 86.6216 190.38 86.8152 190.171 86.935C189.962 87.055 189.763 87.1009 189.548 87.088C189.334 87.0752 189.105 87.004 188.836 86.891L188.836 86.891C188.286 86.6568 187.463 86.635 186.572 86.787C185.682 86.9389 184.727 87.2639 183.916 87.7211C183.058 88.2158 182.564 88.4648 182.112 88.4853C181.661 88.5059 181.253 88.2972 180.569 87.8863C179.792 87.4268 179.193 87.1271 178.489 86.9106C177.785 86.694 176.977 86.5605 175.782 86.4342L175.782 86.4342C174.752 86.3139 173.393 86.338 172.123 86.4621C170.852 86.5861 169.672 86.81 168.999 87.0884C163.896 89.2587 161.184 93.6071 161.475 99.1908C161.62 101.658 162.483 104.188 163.789 105.864L163.789 105.864C164.032 106.178 164.522 106.636 165.131 107.135C165.739 107.633 166.465 108.172 167.176 108.645C169.193 109.955 170.067 110.365 171.348 110.526L171.348 110.526L171.348 110.526C176.174 111.265 181.474 108.998 183.968 105.157C185.747 102.419 186.275 99.1582 185.676 94.8049C185.468 93.3815 185.442 92.3321 185.609 91.5946C185.693 91.2257 185.825 90.9343 186.007 90.7131C186.189 90.4917 186.421 90.3413 186.704 90.2538ZM178.817 91.4452C180.071 92.2926 180.788 92.8482 181.269 93.5569C181.751 94.2657 181.995 95.1265 182.304 96.582C182.616 98.0506 182.742 98.9298 182.577 99.7895C182.412 100.649 181.957 101.488 181.111 102.876L181.111 102.876C180.071 104.564 179.497 105.449 178.751 105.983C178.005 106.516 177.089 106.697 175.371 106.981L175.371 106.981C174.148 107.173 173.401 107.27 172.792 107.271C172.182 107.271 171.711 107.173 171.044 106.975L171.044 106.975C170.114 106.696 169.072 106.149 168.184 105.522C167.297 104.895 166.56 104.187 166.241 103.586L166.241 103.586C165.936 102.983 165.552 101.589 165.254 100.175C164.957 98.7613 164.747 97.3236 164.791 96.633C164.81 96.3072 164.946 95.8761 165.16 95.395C165.375 94.9135 165.67 94.3808 166.01 93.8515C166.689 92.7931 167.547 91.7467 168.305 91.15L168.314 91.1604L168.305 91.15C168.65 90.8788 169.171 90.6185 169.781 90.3873C170.391 90.1559 171.093 89.9533 171.801 89.7978C172.508 89.6422 173.223 89.5337 173.86 89.4905C174.497 89.4474 175.057 89.4696 175.455 89.5761L175.455 89.5762C175.76 89.6616 176.289 89.91 176.897 90.246C177.506 90.5823 178.194 91.0068 178.817 91.4452ZM178.817 91.4452C178.817 91.4452 178.817 91.4452 178.817 91.4452L178.81 91.4561M178.817 91.4452C178.817 91.4453 178.817 91.4453 178.818 91.4453L178.81 91.4561M178.81 91.4561C177.564 90.5799 176.058 89.7588 175.451 89.5889L171.048 106.962C172.382 107.358 172.924 107.351 175.369 106.968C178.807 106.4 179.019 106.246 181.1 102.869C182.792 100.092 182.915 99.5222 182.291 96.5848C181.672 93.6734 181.317 93.1512 178.81 91.4561ZM203.279 83.7156L203.28 83.7156C205.653 84.0002 208.013 85.3758 209.279 87.23C210.74 89.3682 211.204 91.9361 210.566 94.439C209.973 96.7686 208.68 98.6217 206.789 99.84C205.843 100.449 204.549 100.888 203.227 101.101C201.906 101.313 200.556 101.301 199.5 101.008C196.384 100.174 193.625 97.3054 192.935 94.1867L192.935 94.1866C192.608 92.6495 192.921 90.7599 193.644 89.0595C194.367 87.3592 195.501 85.8457 196.819 85.0617C198.601 83.9753 201.105 83.4704 203.279 83.7156Z" fill="#006EFF" stroke="#006EFF" stroke-width="0.0264677"/>
<path d="M170.761 100.517L170.761 100.517C170.819 100.485 170.892 100.413 170.974 100.309C171.055 100.205 171.144 100.07 171.235 99.914C171.416 99.6011 171.602 99.2021 171.745 98.792L171.745 98.792L171.745 98.7916C171.966 98.2279 172.203 97.784 172.459 97.4615C172.714 97.139 172.988 96.9372 173.281 96.8595C173.868 96.7038 174.522 97.047 175.244 97.8858C175.674 98.3773 176.112 98.6893 176.543 98.8134C176.973 98.9374 177.397 98.8743 177.8 98.6134L177.8 98.6134C178.251 98.3219 178.499 97.9205 178.573 97.4656C178.647 97.0104 178.546 96.5007 178.298 95.9934C177.801 94.9786 176.714 93.9762 175.259 93.4449L175.259 93.4448C174.462 93.1398 173.712 93.0489 172.992 93.168C172.273 93.287 171.585 93.616 170.912 94.152C170.286 94.6511 169.677 95.3571 169.207 96.0811C168.736 96.8053 168.406 97.5461 168.338 98.1147C168.255 98.9299 168.572 99.6935 169.056 100.172C169.539 100.65 170.185 100.841 170.761 100.517Z" fill="#006EFF" stroke="#006EFF" stroke-width="0.0264677"/>
<path d="M198.966 88.0793L198.966 88.0793C197.26 89.4997 196.524 91.2553 196.892 92.9909C197.048 93.6903 197.278 94.1804 197.547 94.4726C197.816 94.7642 198.123 94.8584 198.438 94.7682C198.753 94.6777 199.079 94.4004 199.38 93.9428C199.68 93.4854 199.955 92.8492 200.17 92.0436C200.309 91.5108 200.485 91.1063 200.701 90.8317C200.917 90.5566 201.173 90.4114 201.469 90.3986C201.764 90.3858 202.096 90.5049 202.467 90.7537C202.837 91.0026 203.246 91.382 203.694 91.8918C204.176 92.4338 204.632 92.8023 205.036 93.0089C205.44 93.2155 205.79 93.2592 206.061 93.1548C206.332 93.0506 206.528 92.7973 206.621 92.4015C206.714 92.0055 206.703 91.4683 206.561 90.8C206.377 89.931 206.062 89.2806 205.536 88.7635C205.01 88.2461 204.272 87.861 203.236 87.5246C201.518 86.9677 200.045 87.1734 198.966 88.0793Z" fill="#006EFF" stroke="#006EFF" stroke-width="0.0264677"/>
<path d="M138.22 133.214C85.8893 138.151 56.2683 83.354 92.3071 20.6586" stroke="#161A1D" stroke-width="4.67415"/>
<path d="M290.269 131.516L326.586 137.097C329.789 137.59 332.789 135.406 333.306 132.207L348.265 39.6592C348.789 36.4178 346.566 33.3723 343.319 32.8836L302.43 26.73C297.137 25.9335 292.18 29.5159 291.275 34.7909L281.703 90.5818" stroke="#006EFF" stroke-width="5.24439"/>
<path d="M268.038 36.0164C263.384 42.9325 262.043 47.4977 262.607 57.2439M275.443 41.9403C270.439 52.1948 269.259 58.3871 269.519 70.0792" stroke="#FFAC4A" stroke-width="3.49626" stroke-linecap="round"/>
<path d="M186.556 118.947C178.304 124.673 170.759 126.507 167.666 120.548C167.431 120.095 166.638 120.211 166.632 120.721C166.438 137.823 185.067 134.796 187.957 119.796C188.109 119.006 187.216 118.489 186.556 118.947Z" stroke="#161A1D" stroke-width="3.5991"/>
<g opacity="0.6">
<mask id="path-10-inside-1_1648_2083" fill="white">
<rect x="300.082" y="33.6193" width="11.6135" height="11.6134" rx="1.54846" transform="rotate(9.80026 300.082 33.6193)"/>
</mask>
<rect x="300.082" y="33.6193" width="11.6135" height="11.6134" rx="1.54846" transform="rotate(9.80026 300.082 33.6193)" fill="white" stroke="#C7D1DB" stroke-width="5.41961" mask="url(#path-10-inside-1_1648_2083)"/>
<mask id="path-11-inside-2_1648_2083" fill="white">
<rect x="291.865" y="81.3946" width="11.6135" height="11.6134" rx="1.54846" transform="rotate(9.80026 291.865 81.3946)"/>
</mask>
<rect x="291.865" y="81.3946" width="11.6135" height="11.6134" rx="1.54846" transform="rotate(9.80026 291.865 81.3946)" fill="white" stroke="#C7D1DB" stroke-width="5.41961" mask="url(#path-11-inside-2_1648_2083)"/>
<mask id="path-12-inside-3_1648_2083" fill="white">
<rect x="297.578" y="48.1145" width="11.6135" height="11.6134" rx="1.54846" transform="rotate(9.80026 297.578 48.1145)"/>
</mask>
<rect x="297.578" y="48.1145" width="11.6135" height="11.6134" rx="1.54846" transform="rotate(9.80026 297.578 48.1145)" fill="white" stroke="#27AE60" stroke-width="5.41961" mask="url(#path-12-inside-3_1648_2083)"/>
<mask id="path-13-inside-4_1648_2083" fill="white">
<rect x="289.361" y="95.8899" width="11.6135" height="11.6134" rx="1.54846" transform="rotate(9.80026 289.361 95.8899)"/>
</mask>
<rect x="289.361" y="95.8899" width="11.6135" height="11.6134" rx="1.54846" transform="rotate(9.80026 289.361 95.8899)" fill="white" stroke="#C7D1DB" stroke-width="5.41961" mask="url(#path-13-inside-4_1648_2083)"/>
<mask id="path-14-inside-5_1648_2083" fill="white">
<rect x="295.073" y="62.6103" width="11.6135" height="11.6134" rx="1.54846" transform="rotate(9.80026 295.073 62.6103)"/>
</mask>
<rect x="295.073" y="62.6103" width="11.6135" height="11.6134" rx="1.54846" transform="rotate(9.80026 295.073 62.6103)" fill="white" stroke="#27AE60" stroke-width="5.41961" mask="url(#path-14-inside-5_1648_2083)"/>
<mask id="path-15-inside-6_1648_2083" fill="white">
<rect x="286.855" y="110.386" width="11.6135" height="11.6134" rx="1.54846" transform="rotate(9.80026 286.855 110.386)"/>
</mask>
<rect x="286.855" y="110.386" width="11.6135" height="11.6134" rx="1.54846" transform="rotate(9.80026 286.855 110.386)" fill="white" stroke="#27AE60" stroke-width="5.41961" mask="url(#path-15-inside-6_1648_2083)"/>
<path d="M313.751 41.709L338.546 45.992" stroke="#FFAC4A" stroke-width="3.48403" stroke-linecap="round"/>
<path d="M311.248 56.2049L322.692 58.1817" stroke="#FFAC4A" stroke-width="3.48403" stroke-linecap="round"/>
<path d="M308.743 70.7005L327.054 73.8633" stroke="#FFAC4A" stroke-width="3.48403" stroke-linecap="round"/>
<path d="M305.51 89.6189L321.54 92.389" stroke="#FFAC4A" stroke-width="3.48403" stroke-linecap="round"/>
<path d="M303.03 103.98L314.474 105.957" stroke="#FFAC4A" stroke-width="3.48403" stroke-linecap="round"/>
<path d="M300.518 118.524L325.069 122.767" stroke="#FFAC4A" stroke-width="3.48403" stroke-linecap="round"/>
</g>
<path d="M281.492 89.2021L286.893 92.0865L297.8 80.4011L302.295 82.7982L290.459 114.858L291.957 124.895L290.459 127.442L276.522 126.324L281.492 89.2021Z" fill="white"/>
<path d="M232.512 144.074C239.284 137.786 248.426 107.327 263.653 90.7759C264.111 90.2773 264.919 90.405 265.222 91.011L266.901 94.3702C267.216 94.9992 268.07 95.1043 268.527 94.5704L272.58 89.8428C273.022 89.3266 273.843 89.4045 274.18 89.9949L276.725 94.4488C277.068 95.0487 277.906 95.1173 278.342 94.581L282.981 88.8719C283.408 88.3462 284.227 88.3997 284.582 88.9766L286.952 92.8291C287.34 93.4587 288.257 93.4523 288.638 92.8183C294.015 83.8519 300.108 74.5063 305.027 69.779C305.686 69.1452 306.639 69.7562 306.409 70.6415C303.251 82.8 298.38 95.5241 289.779 115.441M286.817 121.859C287.865 119.455 288.826 117.648 289.779 115.441M289.779 115.441C302.083 131.239 278.425 137.163 243.373 165.795" stroke="#161A1D" stroke-width="4.67415" stroke-linecap="round"/>
<path d="M53.1774 64.7444C53.922 65.7988 55.3802 66.0499 56.4346 65.3054C57.4889 64.5609 57.7401 63.1026 56.9956 62.0482L53.1774 64.7444ZM43.3695 38.104C43.3744 43.6045 44.1039 47.8945 45.7533 52.061C47.3817 56.1745 49.8645 60.0529 53.1774 64.7444L56.9956 62.0482C53.7117 57.3978 51.5093 53.9022 50.0993 50.3405C48.7103 46.8318 48.0481 43.1456 48.0436 38.0998L43.3695 38.104Z" fill="#161A1D"/>
<path d="M46.1654 61.0831C63.7857 74.442 72.9505 88.4516 82.2818 103.308C82.8935 104.282 84.2076 104.525 85.1263 103.833L104.291 89.3963L116.814 80.9244C117.803 80.2555 117.971 78.8689 117.19 77.9667C105.886 64.9203 95.1564 46.2631 86.9097 30.638C86.3025 29.4877 84.7618 29.2375 83.8148 30.1291C73.2118 40.1123 71.0994 41.9172 58.91 49.9957C55.3903 52.3284 50.8893 55.0768 46.3401 57.7588C45.117 58.4799 45.034 60.2253 46.1654 61.0831Z" fill="white"/>
<path d="M58.91 49.9957C55.3903 52.3284 50.8893 55.0768 46.3401 57.7588C45.117 58.4799 45.034 60.2253 46.1654 61.0831C63.7857 74.442 72.9505 88.4516 82.2818 103.308C82.8935 104.282 84.2076 104.525 85.1263 103.833L104.291 89.3963L116.814 80.9244C117.803 80.2555 117.971 78.8689 117.19 77.9667C105.886 64.9203 95.1564 46.2631 86.9097 30.638C86.3025 29.4877 84.7618 29.2375 83.8148 30.1291C73.2118 40.1123 71.0994 41.9172 58.91 49.9957ZM58.91 49.9957C51.285 29.3047 63.0059 22.9278 77.9107 35.6275" stroke="#F79797" stroke-width="4.90673" stroke-linecap="round"/>
<path d="M24.99 39.6947C25.8463 60.3027 22.4713 60.777 16.9811 76.0289C16.5859 77.127 17.2479 78.3245 18.3862 78.5814L37.7283 82.9474L52.1975 87.3349C53.3398 87.6813 54.5232 86.9277 54.7392 85.7536C57.6074 70.1611 63.6188 65.3802 70.3653 50.6841C70.908 49.502 70.136 48.1371 68.8469 47.9635C54.4141 46.0193 51.6815 45.516 37.7283 41.1399C33.789 39.9045 31.57 39.1719 27.6689 37.7248C26.3377 37.231 24.931 38.2761 24.99 39.6947Z" fill="white"/>
<path d="M37.7283 41.1399C33.789 39.9045 31.57 39.1719 27.6689 37.7248C26.3377 37.231 24.931 38.2761 24.99 39.6947C25.8463 60.3027 22.4713 60.777 16.9811 76.0289C16.5859 77.127 17.2479 78.3245 18.3862 78.5814L37.7283 82.9474L52.1975 87.3349C53.3398 87.6813 54.5232 86.9277 54.7392 85.7536C57.6074 70.1611 63.6188 65.3802 70.3653 50.6841C70.908 49.502 70.136 48.1371 68.8469 47.9635C54.4141 46.0193 51.6815 45.516 37.7283 41.1399ZM37.7283 41.1399C48.9922 22.1825 61.3288 27.2669 60.8572 46.8427" stroke="#F8E6A0" stroke-width="4.90673" stroke-linecap="round"/>
<path d="M50.2259 99.49C44.6951 83.2804 40.1153 72.5123 26.1991 55.8724C25.2882 54.7832 25.7719 53.1032 27.1292 52.6863C32.1773 51.1356 37.194 49.5091 41.1597 48.0588C38.5613 26.2158 51.3739 22.7024 62.8952 38.3861C67.3116 36.0566 71.8535 33.4772 77.092 30.4738C78.2204 29.8269 79.6581 30.4343 79.9825 31.6939C84.2751 48.3597 89.3182 64.0971 97.2047 79.0105C97.744 80.0304 97.3113 81.2997 96.2536 81.7606L74.8698 91.0788L52.8738 100.664C51.8194 101.123 50.5973 100.579 50.2259 99.49Z" fill="white"/>
<path d="M41.1597 48.0588C37.194 49.5091 32.1773 51.1356 27.1292 52.6863C25.7719 53.1032 25.2882 54.7832 26.1991 55.8724C40.1153 72.5123 44.6951 83.2804 50.2258 99.49C50.5973 100.579 51.8194 101.123 52.8738 100.664L74.8698 91.0788L96.2536 81.7606C97.3113 81.2997 97.744 80.0304 97.2047 79.0105C89.3182 64.0971 84.2751 48.3597 79.9825 31.6939C79.6581 30.4343 78.2204 29.8269 77.092 30.4738C63.7413 38.1283 54.9149 43.0282 41.1597 48.0588ZM41.1597 48.0588C38.5549 26.1619 51.4372 22.6852 62.9805 38.5026" stroke="#7EE2B8" stroke-width="4.90673" stroke-linecap="round"/>
<path d="M61.6697 19.5851L69.0365 22.0406C69.0365 27.6427 65.1638 29.6955 61.0586 27.5169C59.5486 30.6546 56.1876 32.3481 52.7069 31.2877C52.7069 35.0263 48.5689 40.4801 45.4072 38.4009C40.2189 34.9892 35.2845 26.7759 45.4072 23.7086C41.4577 14.9989 42.5828 13.2894 52.3187 12.3544C51.8367 4.83023 54.8371 5.00468 66.2842 8.40507C66.7578 7.22634 67.4389 6.00013 68.3597 4.63405C69.6985 2.6481 72.5524 2.56066 74.1439 4.35043C77.8004 8.46237 80.0834 11.625 82.4333 16.5448C75.1812 14.6889 69.4448 14.4618 65.6481 15.4926C63.5118 16.0726 61.9896 17.0508 61.157 18.3612C60.8601 18.8284 61.1446 19.4101 61.6697 19.5851Z" fill="white"/>
<path d="M61.6697 19.5851L60.9307 21.8023L60.9307 21.8023L61.6697 19.5851ZM77.7448 27.4067C78.9693 27.8149 80.2928 27.1531 80.701 25.9286C81.1091 24.7041 80.4473 23.3806 79.2228 22.9724L77.7448 27.4067ZM74.1439 4.35043L75.8904 2.79743V2.79742L74.1439 4.35043ZM65.6481 15.4926L66.2604 17.748V17.748L65.6481 15.4926ZM61.157 18.3612L59.1844 17.1079L59.1844 17.1079L61.157 18.3612ZM68.3597 4.63405L70.2976 5.94038V5.94038L68.3597 4.63405ZM61.0586 27.5169L62.1542 25.4525V25.4525L61.0586 27.5169ZM45.4072 23.7086L47.5356 22.7434L45.4072 23.7086ZM52.7069 31.2877L53.388 29.0521L52.7069 31.2877ZM45.4072 38.4009L46.6912 36.4482H46.6912L45.4072 38.4009ZM60.9307 21.8023L68.2975 24.2578L69.7755 19.8235L62.4087 17.368L60.9307 21.8023ZM68.2975 24.2578L77.7448 27.4067L79.2228 22.9724L69.7755 19.8235L68.2975 24.2578ZM93.5229 22.9624C94.1345 22.3018 94.7027 21.4784 94.8978 20.4903C95.1183 19.3734 94.8036 18.347 94.1739 17.5613C93.6169 16.8662 92.8785 16.432 92.2626 16.1495C91.6197 15.8546 90.9116 15.6363 90.2275 15.4662C88.8653 15.1275 87.3121 14.9129 86.011 14.7414C84.6016 14.5556 83.5972 14.4303 83.0127 14.2807L81.8538 18.809C82.7873 19.0479 84.1819 19.2149 85.4001 19.3755C86.7266 19.5503 88.0295 19.7362 89.0998 20.0023C89.6318 20.1345 90.0339 20.2696 90.3138 20.398C90.6206 20.5387 90.6173 20.5976 90.5264 20.4842C90.3629 20.2801 90.2452 19.9241 90.3122 19.5849C90.3538 19.3745 90.4179 19.4361 90.0932 19.7867L93.5229 22.9624ZM84.5421 15.5376C82.0764 10.3751 79.6557 7.03174 75.8904 2.79743L72.3975 5.90343C75.9451 9.89299 78.0904 12.8749 80.3244 17.5521L84.5421 15.5376ZM83.0127 14.2807C75.5933 12.382 69.3971 12.0531 65.0357 13.2372L66.2604 17.748C69.4925 16.8705 74.7691 16.9958 81.8538 18.809L83.0127 14.2807ZM65.0357 13.2372C62.5671 13.9074 60.4374 15.1357 59.1844 17.1079L63.1296 19.6145C63.5417 18.9659 64.4565 18.2378 66.2604 17.748L65.0357 13.2372ZM66.4219 3.32773C65.4401 4.78407 64.6684 6.15806 64.1156 7.53375L68.4528 9.27639C68.8473 8.29462 69.4376 7.21619 70.2976 5.94038L66.4219 3.32773ZM64.1156 7.53375C62.9956 10.3212 62.8651 12.8948 63.3404 15.8623L67.9557 15.1229C67.5837 12.8006 67.7143 11.1143 68.4528 9.27638L64.1156 7.53375ZM66.9497 6.16475C64.0877 5.3146 61.6626 4.63797 59.6637 4.2379C57.7206 3.84899 55.8826 3.65417 54.3205 4.00173C53.4942 4.18557 52.6951 4.5309 52.0028 5.11334C51.3081 5.69784 50.8305 6.42896 50.5155 7.22271C49.9222 8.71754 49.8616 10.5561 49.9864 12.5038L54.651 12.205C54.5348 10.3906 54.6685 9.42936 54.86 8.94701C54.9373 8.75216 54.9997 8.70032 55.012 8.69004C55.0266 8.67769 55.1015 8.6164 55.3356 8.56431C55.8943 8.44001 56.9226 8.45612 58.7464 8.82115C60.5145 9.17502 62.7571 9.79535 65.6187 10.6454L66.9497 6.16475ZM50.0224 12.7888C51.6858 21.5809 55.6165 27.2745 59.9631 29.5812L62.1542 25.4525C59.5175 24.0532 56.1283 19.9183 54.615 11.9199L50.0224 12.7888ZM59.9631 29.5812C62.5323 30.9448 65.4572 31.1832 67.8403 29.6691C70.2146 28.1607 71.3736 25.3434 71.3736 22.0406H66.6994C66.6994 24.34 65.9221 25.3501 65.3337 25.7239C64.7542 26.0921 63.6902 26.2676 62.1542 25.4525L59.9631 29.5812ZM52.0953 10.028C49.6389 10.2639 47.5474 10.5621 45.8987 11.0614C44.2677 11.5553 42.683 12.3592 41.7404 13.8914C40.784 15.4461 40.8126 17.2175 41.1659 18.8779C41.5194 20.5395 42.2804 22.4723 43.2787 24.6738L47.5356 22.7434C46.5592 20.5901 45.9798 19.043 45.7377 17.9053C45.4954 16.7663 45.6733 16.4189 45.7215 16.3406C45.7835 16.2398 46.0587 15.8967 47.2534 15.5349C48.4304 15.1785 50.1306 14.9123 52.5421 14.6807L52.0953 10.028ZM43.2787 24.6738C45.4763 29.5202 48.5845 32.4749 52.0259 33.5234L53.388 29.0521C51.611 28.5107 49.3663 26.7805 47.5356 22.7434L43.2787 24.6738ZM52.0259 33.5234C56.6998 34.9473 61.1963 32.6202 63.1645 28.5303L58.9527 26.5034C57.901 28.689 55.6753 29.7489 53.388 29.0521L52.0259 33.5234ZM44.7294 21.472C41.902 22.3287 39.7764 23.6474 38.4936 25.4767C37.1722 27.3611 36.9625 29.4754 37.3809 31.4178C38.1734 35.0966 41.2375 38.4561 44.1231 40.3536L46.6912 36.4482C44.3886 34.934 42.3913 32.481 41.9502 30.4334C41.7519 29.5127 41.8823 28.7853 42.3205 28.1604C42.7974 27.4804 43.851 26.6221 46.0849 25.9452L44.7294 21.472ZM44.1231 40.3536C45.5905 41.3186 47.2034 41.3816 48.6202 40.9097C49.9549 40.4651 51.0897 39.5675 51.9711 38.5991C53.6944 36.7057 55.044 33.8698 55.044 31.2877H50.3699C50.3699 32.4442 49.6505 34.2045 48.5143 35.4529C47.966 36.0554 47.4735 36.365 47.143 36.4751C46.8947 36.5578 46.8047 36.5228 46.6912 36.4482L44.1231 40.3536ZM75.8904 2.79742C73.3663 -0.0410649 68.6809 -0.0235273 66.4219 3.32773L70.2976 5.94038C70.716 5.31972 71.7385 5.16238 72.3975 5.90343L75.8904 2.79742ZM62.4088 17.368C62.756 17.4837 63.0703 17.7475 63.2431 18.1387C63.4306 18.5635 63.4357 19.1326 63.1296 19.6145L59.1844 17.1079C57.877 19.1656 59.3305 21.2689 60.9307 21.8023L62.4088 17.368Z" fill="#161A1D"/>
</svg>
