<svg width="430" height="406" viewBox="0 0 430 406" fill="none" xmlns="http://www.w3.org/2000/svg">
<path d="M227.907 279.256C227.711 232.511 220.904 209.326 215.525 159.726C215.499 159.493 215.658 159.278 215.891 159.25C270.579 152.612 356.211 121.041 378.417 91.6219C378.63 91.3398 379.062 91.4273 379.163 91.766C393.377 139.414 392.449 205.772 384.835 211.776C350.962 238.484 289.594 268.65 228.409 279.683C228.148 279.73 227.908 279.522 227.907 279.256Z" fill="white" stroke="#006EFF" stroke-width="8.54496" stroke-linecap="round"/>
<path d="M348.816 200.406C345.835 211.178 340.687 219.644 334.059 224.711C327.549 229.688 319.351 231.597 309.553 228.885C299.622 226.136 290.611 219.273 284.829 210.441C279.058 201.627 276.647 191.094 279.45 180.966C285.245 160.03 304.514 148.025 324.035 153.428C343.617 158.848 354.593 179.536 348.816 200.406Z" stroke="#006EFF" stroke-width="6.83597"/>
<path d="M304.624 164.677C314.771 186.592 317.726 199.118 319.035 222.797" stroke="#FFAC4A" stroke-width="5.98147" stroke-linecap="round"/>
<path d="M318.957 171.139C297.726 173.185 293.564 189.737 315.82 193.059C339.023 193.831 329.794 222.946 303.921 209.352" stroke="#FFAC4A" stroke-width="8.54496" stroke-linecap="round"/>
<path d="M224.311 320.534C224.507 273.788 231.314 250.604 236.694 201.003C236.719 200.77 236.56 200.555 236.328 200.527C181.64 193.89 96.007 162.318 73.8014 132.899C73.5884 132.617 73.1565 132.705 73.0554 133.043C58.8417 180.691 59.7692 247.049 67.3834 253.053C101.256 279.761 162.624 309.928 223.809 320.96C224.071 321.007 224.31 320.799 224.311 320.534Z" fill="white" stroke="#006EFF" stroke-width="8.54496" stroke-linecap="round"/>
<path d="M103.402 241.683C106.384 252.455 111.532 260.922 118.159 265.988C124.669 270.965 132.867 272.875 142.665 270.163C152.596 267.414 161.607 260.55 167.389 251.719C173.16 242.905 175.571 232.371 172.768 222.243C166.973 201.308 147.704 189.302 128.183 194.705C108.602 200.125 97.6253 220.813 103.402 241.683Z" stroke="#006EFF" stroke-width="6.83597"/>
<path d="M147.594 205.955C137.448 227.87 134.493 240.395 133.183 264.074" stroke="#FFAC4A" stroke-width="5.98147" stroke-linecap="round"/>
<path d="M133.261 212.416C154.492 214.462 158.655 231.014 136.398 234.336C113.195 235.109 122.425 264.223 148.297 250.629" stroke="#FFAC4A" stroke-width="8.54496" stroke-linecap="round"/>
<path d="M201.595 286.759C181.324 244.638 165.211 226.63 139.032 184.159C138.91 183.96 138.961 183.697 139.158 183.572C185.683 154.07 249.428 88.7537 256.831 52.6463C256.902 52.3 257.329 52.1934 257.566 52.4558C290.882 89.3662 318.57 149.679 314.276 158.373C295.173 197.049 252.732 250.666 202.231 286.928C202.016 287.083 201.71 286.999 201.595 286.759Z" fill="white" stroke="#006EFF" stroke-width="8.54496" stroke-linecap="round"/>
<path d="M276.867 163.591C278.806 174.598 277.797 184.456 273.991 191.879C270.253 199.171 263.672 204.419 253.66 206.183C243.511 207.97 232.425 205.646 223.408 200.158C214.408 194.68 207.704 186.207 205.881 175.857C202.114 154.463 214.35 135.34 234.298 131.827C254.308 128.304 273.112 142.264 276.867 163.591Z" stroke="#006EFF" stroke-width="6.83597"/>
<path d="M221.608 150.329C240.19 165.754 248.242 175.792 259.603 196.61" stroke="#FFAC4A" stroke-width="5.98147" stroke-linecap="round"/>
<path d="M237.327 150.001C219.037 160.976 222.394 177.71 243.917 171.141C265.199 161.865 269.381 192.119 240.177 190.967" stroke="#FFAC4A" stroke-width="8.54496" stroke-linecap="round"/>
</svg>
