<svg width="330" height="330" viewBox="0 0 330 330" fill="none" xmlns="http://www.w3.org/2000/svg">
<g clip-path="url(#clip0_1485_1372)">
<rect width="330" height="330" fill="white"/>
<path d="M153.475 132.193C156.59 126.491 160.291 88.6233 165.35 56.2716C165.368 56.1554 165.469 56.0714 165.587 56.074L226.691 57.3916C230.766 57.4795 233.917 60.9939 233.562 65.054L227.708 131.968C227.368 135.847 223.949 138.716 220.071 138.376L153.679 132.568C153.496 132.552 153.387 132.353 153.475 132.193Z" fill="white" stroke="#172B4D" stroke-width="4.69972" stroke-linecap="round"/>
<path d="M214.68 89.1982C214.68 99.5806 206.263 107.997 195.881 107.997C185.499 107.997 177.082 99.5806 177.082 89.1982C177.082 78.8158 185.499 70.3993 195.881 70.3993C206.263 70.3993 214.68 78.8158 214.68 89.1982Z" fill="white" stroke="#172B4D" stroke-width="4.69972"/>
<path d="M173.087 120.92C176.932 116.226 178.053 116.951 185.214 120.97C186.716 121.813 188.547 121.728 190.045 120.878C196.613 117.151 197.705 119.172 201.998 122.303C202.454 122.635 202.975 122.878 203.527 122.995C206.649 123.656 208.34 123.125 210.215 120.45" stroke="#172B4D" stroke-width="3.75977" stroke-linecap="round"/>
<path d="M193.61 73.6123L192.689 92.0268C192.68 92.2024 192.86 92.3251 193.021 92.2527L209.824 84.6567" stroke="#FFAC4A" stroke-width="4.69972" stroke-linecap="round"/>
<path d="M147.783 82.7601C150.803 77.3337 149.561 43.8031 149.554 18.0858C149.554 17.958 149.656 17.8556 149.784 17.8529L208.856 16.6005C212.807 16.5167 216.055 19.6966 216.055 23.6485V76.3694C216.055 80.2628 212.899 83.419 209.005 83.419H148.101C147.859 83.419 147.665 82.9714 147.783 82.7601Z" fill="white" stroke="#172B4D" stroke-width="4.69972" stroke-linecap="round"/>
<mask id="path-6-inside-1_1485_1372" fill="white">
<rect x="158.013" y="24.9081" width="14.0991" height="14.0992" rx="1.87989"/>
</mask>
<rect x="158.013" y="24.9081" width="14.0991" height="14.0992" rx="1.87989" fill="white" stroke="#172B4D" stroke-width="6.5796" mask="url(#path-6-inside-1_1485_1372)"/>
<mask id="path-7-inside-2_1485_1372" fill="white">
<rect x="158.013" y="42.7673" width="14.0991" height="14.0992" rx="1.87989"/>
</mask>
<rect x="158.013" y="42.7673" width="14.0991" height="14.0992" rx="1.87989" fill="white" stroke="#172B4D" stroke-width="6.5796" mask="url(#path-7-inside-2_1485_1372)"/>
<mask id="path-8-inside-3_1485_1372" fill="white">
<rect x="158.013" y="60.6268" width="14.0991" height="14.0992" rx="1.87989"/>
</mask>
<rect x="158.013" y="60.6268" width="14.0991" height="14.0992" rx="1.87989" fill="white" stroke="#172B4D" stroke-width="6.5796" mask="url(#path-8-inside-3_1485_1372)"/>
<path d="M176.04 31.7625H206.588" stroke="#006EFF" stroke-width="4.22974" stroke-linecap="round"/>
<path d="M176.04 49.6213H190.139" stroke="#006EFF" stroke-width="4.22974" stroke-linecap="round"/>
<path d="M176.038 67.4802H198.597" stroke="#006EFF" stroke-width="4.22974" stroke-linecap="round"/>
<path d="M250.536 182.037C253.711 176.168 252.436 133.511 252.43 100.929C252.43 100.802 252.531 100.699 252.658 100.696L311.467 99.1332C315.432 99.0279 318.704 102.214 318.704 106.18V175.547C318.704 179.44 315.547 182.596 311.654 182.596H250.829C250.6 182.596 250.427 182.239 250.536 182.037Z" fill="white" stroke="#172B4D" stroke-width="4.69972" stroke-linecap="round"/>
<path d="M261.837 113.511H292.385" stroke="#006EFF" stroke-width="4.22975" stroke-linecap="round"/>
<path d="M261.837 123.38H282.986" stroke="#172B4D" stroke-width="4.22975" stroke-linecap="round"/>
<path d="M261.837 134.189H298.965" stroke="#006EFF" stroke-width="4.22975" stroke-linecap="round"/>
<path d="M261.837 144.998H303.665" stroke="#172B4D" stroke-width="4.22975" stroke-linecap="round"/>
<path d="M261.837 166.147H303.665" stroke="#172B4D" stroke-width="4.22975" stroke-linecap="round"/>
<path d="M261.837 155.808H306.955" stroke="#006EFF" stroke-width="4.22975" stroke-linecap="round"/>
<path d="M24.1731 154.641C22.8646 131.741 57.8591 132.286 57.892 132.287C57.893 132.287 57.8925 132.287 57.8935 132.287C103.845 132.372 99.2029 101.663 84.9408 94.7398" stroke="#161A1D" stroke-width="6.46216" stroke-linecap="round"/>
<path d="M80.8612 207.689C81.8564 203.476 84.9385 200.579 90.4717 198.091C92.2712 197.281 94.2078 198.754 93.9218 200.706C92.0946 213.175 86.3768 213.757 81.645 209.947C80.9728 209.406 80.6628 208.529 80.8612 207.689Z" stroke="#161A1D" stroke-width="3.91644" stroke-linecap="round"/>
<path d="M24.524 169.702C30.4546 190.386 37.8283 206.977 45.8632 219.414M119.077 203.908C106.377 256.218 72.4897 260.627 45.8632 219.414M45.8632 219.414C32.8673 229.149 26.2791 237.671 19.8698 250.09" stroke="#161A1D" stroke-width="5.87466" stroke-linecap="round"/>
<path d="M63.6974 186.977L63.6975 186.977C64.0708 187.269 64.7736 187.654 65.6249 188.051C66.4759 188.448 67.474 188.856 68.4369 189.193C71.1566 190.111 72.2878 190.328 73.817 190.136L73.8175 190.136C79.6166 189.563 85.0755 185.375 86.8248 180.196C88.0721 176.503 87.7199 172.576 85.7398 167.718C85.0791 166.134 84.7389 164.928 84.714 164.025C84.7015 163.574 84.768 163.198 84.9133 162.888C85.0586 162.578 85.2825 162.336 85.5836 162.151C85.9226 161.939 86.2294 161.822 86.5344 161.828C86.8397 161.835 87.1404 161.964 87.4675 162.238C88.1204 162.785 88.8834 163.915 90.0033 165.82L90.0034 165.82C91.0036 167.555 91.7857 168.741 92.7044 169.785C93.6232 170.828 94.6791 171.729 96.2276 172.891C96.7583 173.283 97.2325 173.669 97.5687 173.972C97.7368 174.124 97.8706 174.255 97.96 174.357C98.0046 174.407 98.0385 174.451 98.0599 174.487C98.0706 174.504 98.0786 174.521 98.0831 174.535C98.0876 174.549 98.0893 174.563 98.0851 174.576C98.0812 174.588 98.0708 174.601 98.0576 174.615C98.0438 174.629 98.025 174.647 98.0016 174.666C97.9548 174.706 97.8886 174.756 97.8055 174.816C97.6391 174.936 97.4037 175.093 97.1164 175.277C96.5419 175.646 95.7595 176.122 94.9062 176.615L94.9061 176.615C93.1924 177.587 92.1559 178.26 91.5808 178.836C91.2935 179.123 91.1222 179.386 91.0388 179.649C90.9555 179.912 90.9595 180.177 91.0252 180.47L91.0253 180.47C91.1644 181.108 91.3637 181.47 91.7136 181.617C91.8891 181.691 92.1042 181.712 92.3719 181.684C92.6396 181.656 92.9588 181.579 93.342 181.46C94.5761 181.061 96.6219 180.031 98.4453 178.969C99.3569 178.438 100.213 177.9 100.883 177.429C101.218 177.193 101.507 176.974 101.733 176.782C101.96 176.59 102.122 176.424 102.207 176.296C102.207 176.296 102.207 176.295 102.207 176.295L102.22 176.304M63.6974 186.977L104.921 174.967C102.933 175.385 102.777 175.427 102.22 176.304M63.6974 186.977C61.692 185.425 59.9451 182.754 59.049 179.944C57.0618 173.573 58.9129 167.742 64.1728 163.724C64.8681 163.203 66.1668 162.595 67.5996 162.076C69.0322 161.557 70.5968 161.128 71.8232 160.962L71.8234 160.962M63.6974 186.977L71.8234 160.962M102.22 176.304C101.535 177.351 95.8184 180.677 93.3467 181.475C91.8126 181.952 91.2884 181.751 91.0098 180.473M102.22 176.304L91.0098 180.473M91.0098 180.473C90.7449 179.295 91.4714 178.546 94.8982 176.601L91.0098 180.473ZM71.8234 160.962C73.2426 160.755 74.2171 160.671 75.095 160.713M71.8234 160.962L75.095 160.713M72.3738 164.693L72.374 164.693C72.7519 164.701 73.4375 164.832 74.2401 165.041C75.0431 165.25 75.9646 165.537 76.8151 165.86M72.3738 164.693L62.1268 176.006C62.2801 176.818 62.9486 178.418 63.7103 179.966C64.4719 181.513 65.3287 183.012 65.8599 183.618L65.8601 183.619C66.4064 184.219 67.4674 184.821 68.6793 185.283C69.8916 185.746 71.2575 186.071 72.4157 186.118C73.2464 186.15 73.8192 186.124 74.5242 185.944C75.2286 185.763 76.0645 185.429 77.4216 184.846L77.4217 184.846C79.3252 184.01 80.3311 183.53 81.036 182.692C81.7405 181.855 82.1433 180.661 82.8471 178.402L82.8472 178.402C83.4148 176.547 83.6933 175.442 83.6298 174.399C83.5663 173.356 83.1608 172.377 82.3657 170.77C81.5776 169.178 81.041 168.255 80.275 167.578C79.509 166.9 78.5148 166.47 76.8151 165.86M72.3738 164.693C71.8818 164.687 71.2275 164.827 70.504 165.065C69.7802 165.303 68.9859 165.64 68.2132 166.029C67.4406 166.418 66.6893 166.86 66.0517 167.308C65.4143 167.756 64.8896 168.21 64.5709 168.626L64.5835 168.636M72.3738 164.693L64.5835 168.636M76.8151 165.86C76.815 165.86 76.815 165.86 76.8149 165.86L76.8096 165.875L76.8152 165.86C76.8152 165.86 76.8151 165.86 76.8151 165.86ZM64.5835 168.636L64.5709 168.626M64.5835 168.636L64.5709 168.626M103.561 170.807C104.869 170.833 106.434 170.448 107.899 169.812C109.364 169.175 110.731 168.285 111.645 167.301C113.472 165.333 114.42 162.808 114.417 159.938C114.415 156.855 113.119 154.022 110.797 151.981C108.785 150.211 105.649 149.318 102.82 149.69L102.82 149.69C100.233 150.049 97.4867 151.373 95.7461 153.157C94.4539 154.453 93.5899 156.539 93.2564 158.719C92.9229 160.899 93.1195 163.177 93.9518 164.858L93.9518 164.858C95.6718 168.261 99.7106 170.763 103.561 170.807ZM103.561 170.807C103.561 170.807 103.561 170.807 103.561 170.807L103.561 170.791L103.561 170.807C103.561 170.807 103.561 170.807 103.561 170.807ZM75.095 160.713C75.9727 160.755 76.7545 160.925 77.7884 161.227L75.095 160.713ZM64.5709 168.626C63.8706 169.54 63.1866 171.004 62.7143 172.429M64.5709 168.626L62.7143 172.429M62.7143 172.429C62.4781 173.141 62.2946 173.845 62.1885 174.465M62.7143 172.429L62.1885 174.465M62.1885 174.465C62.0824 175.085 62.0533 175.623 62.1268 176.006L62.1885 174.465ZM89.9897 165.828C87.749 162.017 86.9431 161.319 85.592 162.165C84.3974 162.898 84.4334 164.543 85.7544 167.712L89.9897 165.828ZM70.1777 178.735L70.1776 178.735C69.6076 179.28 68.8038 179.25 68.1035 178.84C67.4034 178.43 66.8101 177.641 66.6657 176.673C66.5767 175.996 66.7392 175.041 67.0691 174.065C67.3989 173.088 67.8951 172.092 68.4715 171.33C69.0906 170.511 69.7896 169.927 70.5861 169.577C71.3825 169.227 72.2774 169.11 73.289 169.227L73.2893 169.227C75.1293 169.411 76.6826 170.249 77.5569 171.276C77.9941 171.789 78.2609 172.349 78.31 172.897C78.359 173.445 78.1908 173.983 77.7557 174.453L77.7673 174.464L77.7557 174.453C77.3668 174.874 76.8951 175.072 76.3609 175.056C75.8259 175.04 75.2268 174.809 74.5845 174.367C73.5015 173.611 72.6437 173.407 72.0112 173.76C71.6954 173.937 71.4381 174.251 71.238 174.7C71.0378 175.148 70.8942 175.732 70.8062 176.449L70.8061 176.45C70.7616 176.966 70.6639 177.483 70.5473 177.898C70.489 178.106 70.426 178.288 70.3626 178.432C70.299 178.576 70.2358 178.681 70.1777 178.735ZM99.1204 156.012L99.1205 156.012C100.101 154.646 101.743 153.973 103.895 154.108C105.192 154.192 106.16 154.419 106.921 154.861C107.682 155.304 108.238 155.963 108.709 156.914C109.071 157.645 109.242 158.263 109.251 158.748C109.261 159.233 109.109 159.584 108.826 159.785C108.543 159.986 108.125 160.039 107.597 159.919C107.069 159.8 106.433 159.508 105.716 159.024C105.047 158.567 104.461 158.249 103.96 158.07C103.458 157.892 103.038 157.853 102.7 157.955C102.362 158.057 102.109 158.3 101.941 158.682C101.773 159.064 101.688 159.584 101.685 160.241C101.674 161.236 101.544 162.053 101.332 162.671C101.12 163.289 100.825 163.706 100.487 163.904C100.15 164.101 99.7662 164.083 99.3693 163.826C98.9715 163.567 98.561 163.068 98.1745 162.305C97.2349 160.407 97.568 158.159 99.1204 156.012Z" fill="#006EFF" stroke="#172B4D" stroke-width="0.031723"/>
<path d="M174.657 214.862C159.583 199.636 149.912 194.238 132.227 179.743C132.144 179.675 132.127 179.554 132.194 179.47C147.949 159.739 165.819 121.918 163.636 105.166C163.615 105.005 163.784 104.895 163.926 104.974C183.874 115.993 204.878 137.995 204.315 142.403C201.812 162.015 191.427 191.586 174.958 214.84C174.887 214.939 174.742 214.948 174.657 214.862Z" fill="white" stroke="#161A1D" stroke-width="3.91644" stroke-linecap="round"/>
<path d="M188.883 150.25C191.367 154.73 192.401 159.152 191.861 162.938C191.329 166.656 189.261 169.912 185.186 172.171C181.055 174.461 175.904 175.11 171.177 174.078C166.46 173.048 162.289 170.377 159.954 166.164C155.127 157.456 157.574 147.343 165.694 142.842C173.839 138.327 184.071 141.569 188.883 150.25Z" stroke="#161A1D" stroke-width="3.13315"/>
<path d="M162.958 152.754C173.313 156.664 178.301 159.811 186.333 167.136" stroke="#FFAC4A" stroke-width="2.74151" stroke-linecap="round"/>
<path d="M169.72 150.265C163.433 157.751 167.387 164.501 175.732 158.441C183.57 151.244 189.899 163.729 177.072 167.591" stroke="#FFAC4A" stroke-width="3.91644" stroke-linecap="round"/>
<path d="M155.1 197.175L165.825 206.25" stroke="white" stroke-width="4.95"/>
<path d="M68.2017 276.79C84.1142 293.21 102.194 298.007 121.583 292.448C180.962 275.421 151.949 213.499 172.642 186.854C172.713 186.763 172.767 186.646 172.789 186.533C174.398 178.582 157.577 188.738 153.428 205.294M95.4088 262.266C131.378 269.064 145.35 243.626 143.55 189.75" stroke="#161A1D" stroke-width="4.95" stroke-linecap="round"/>
</g>
<defs>
<clipPath id="clip0_1485_1372">
<rect width="330" height="330" fill="white"/>
</clipPath>
</defs>
</svg>
